<?xml version="1.0" encoding="UTF-8" standalone="no"?><svg xmlns="http://www.w3.org/2000/svg" xmlns:xlink="http://www.w3.org/1999/xlink" contentStyleType="text/css" height="1025px" preserveAspectRatio="none" style="width:1508px;height:1025px;background:#FFFFFF;" version="1.1" viewBox="0 0 1508 1025" width="1508px" zoomAndPan="magnify"><defs/><g><!--MD5=[3b331e16166b544567ee9c692521d86c]
class BiGraph--><g id="elem_BiGraph"><rect codeLine="1" fill="#F1F1F1" height="129.4844" id="BiGraph" rx="2.5" ry="2.5" style="stroke:#181818;stroke-width:0.5;" width="187" x="894.5" y="139.5"/><ellipse cx="954.75" cy="155.5" fill="#ADD1B2" rx="11" ry="11" style="stroke:#181818;stroke-width:1.0;"/><path d="M957.0938,151.1719 C956.1563,150.7344 955.5625,150.5938 954.6875,150.5938 C952.0625,150.5938 950.0625,152.6719 950.0625,155.3906 L950.0625,156.5156 C950.0625,159.0938 952.1719,160.9844 955.0625,160.9844 C956.2813,160.9844 957.4375,160.6875 958.1875,160.1406 C958.7656,159.7344 959.0938,159.2813 959.0938,158.8906 C959.0938,158.4375 958.7031,158.0469 958.2344,158.0469 C958.0156,158.0469 957.8125,158.125 957.625,158.3125 C957.1719,158.7969 957.1719,158.7969 956.9844,158.8906 C956.5625,159.1563 955.875,159.2813 955.1094,159.2813 C953.0625,159.2813 951.7656,158.1875 951.7656,156.4844 L951.7656,155.3906 C951.7656,153.6094 953.0156,152.2969 954.75,152.2969 C955.3281,152.2969 955.9375,152.4531 956.4063,152.7031 C956.8906,152.9844 957.0625,153.2031 957.1563,153.6094 C957.2188,154.0156 957.25,154.1406 957.3906,154.2656 C957.5313,154.4063 957.7656,154.5156 957.9844,154.5156 C958.25,154.5156 958.5156,154.375 958.6875,154.1563 C958.7969,154 958.8281,153.8125 958.8281,153.3906 L958.8281,151.9688 C958.8281,151.5313 958.8125,151.4063 958.7188,151.25 C958.5625,150.9844 958.2813,150.8438 957.9844,150.8438 C957.6875,150.8438 957.4844,150.9375 957.2656,151.25 L957.0938,151.1719 Z " fill="#000000"/><text fill="#000000" font-family="sans-serif" font-size="14" lengthAdjust="spacing" textLength="58" x="975.25" y="160.3467">BiGraph</text><line style="stroke:#181818;stroke-width:0.5;" x1="895.5" x2="1080.5" y1="171.5" y2="171.5"/><text fill="#000000" font-family="sans-serif" font-size="14" lengthAdjust="spacing" textLength="135" x="900.5" y="188.4951">adj: Dict[int, Node]</text><text fill="#000000" font-family="sans-serif" font-size="14" lengthAdjust="spacing" textLength="72" x="900.5" y="204.792">edges: int</text><line style="stroke:#181818;stroke-width:0.5;" x1="895.5" x2="1080.5" y1="212.0938" y2="212.0938"/><text fill="#000000" font-family="sans-serif" font-size="14" lengthAdjust="spacing" textLength="62" x="900.5" y="229.0889">__init__()</text><text fill="#000000" font-family="sans-serif" font-size="14" lengthAdjust="spacing" textLength="159" x="900.5" y="245.3857">add_node(u, **kwargs)</text><text fill="#000000" font-family="sans-serif" font-size="14" lengthAdjust="spacing" textLength="175" x="900.5" y="261.6826">add_edge(u, v, **kwargs)</text></g><!--MD5=[2e2f8c8f62c4eb3bc59a59727cfd81a5]
class Edge--><g id="elem_Edge"><rect codeLine="9" fill="#F1F1F1" height="113.1875" id="Edge" rx="2.5" ry="2.5" style="stroke:#181818;stroke-width:0.5;" width="170" x="902" y="542.5"/><ellipse cx="964.75" cy="558.5" fill="#ADD1B2" rx="11" ry="11" style="stroke:#181818;stroke-width:1.0;"/><path d="M967.0938,554.1719 C966.1563,553.7344 965.5625,553.5938 964.6875,553.5938 C962.0625,553.5938 960.0625,555.6719 960.0625,558.3906 L960.0625,559.5156 C960.0625,562.0938 962.1719,563.9844 965.0625,563.9844 C966.2813,563.9844 967.4375,563.6875 968.1875,563.1406 C968.7656,562.7344 969.0938,562.2813 969.0938,561.8906 C969.0938,561.4375 968.7031,561.0469 968.2344,561.0469 C968.0156,561.0469 967.8125,561.125 967.625,561.3125 C967.1719,561.7969 967.1719,561.7969 966.9844,561.8906 C966.5625,562.1563 965.875,562.2813 965.1094,562.2813 C963.0625,562.2813 961.7656,561.1875 961.7656,559.4844 L961.7656,558.3906 C961.7656,556.6094 963.0156,555.2969 964.75,555.2969 C965.3281,555.2969 965.9375,555.4531 966.4063,555.7031 C966.8906,555.9844 967.0625,556.2031 967.1563,556.6094 C967.2188,557.0156 967.25,557.1406 967.3906,557.2656 C967.5313,557.4063 967.7656,557.5156 967.9844,557.5156 C968.25,557.5156 968.5156,557.375 968.6875,557.1563 C968.7969,557 968.8281,556.8125 968.8281,556.3906 L968.8281,554.9688 C968.8281,554.5313 968.8125,554.4063 968.7188,554.25 C968.5625,553.9844 968.2813,553.8438 967.9844,553.8438 C967.6875,553.8438 967.4844,553.9375 967.2656,554.25 L967.0938,554.1719 Z " fill="#000000"/><text fill="#000000" font-family="sans-serif" font-size="14" lengthAdjust="spacing" textLength="36" x="985.25" y="563.3467">Edge</text><line style="stroke:#181818;stroke-width:0.5;" x1="903" x2="1071" y1="574.5" y2="574.5"/><text fill="#000000" font-family="sans-serif" font-size="14" lengthAdjust="spacing" textLength="41" x="908" y="591.4951">fr: int</text><text fill="#000000" font-family="sans-serif" font-size="14" lengthAdjust="spacing" textLength="45" x="908" y="607.792">to: int</text><text fill="#000000" font-family="sans-serif" font-size="14" lengthAdjust="spacing" textLength="83" x="908" y="624.0889">__dict__: {}</text><line style="stroke:#181818;stroke-width:0.5;" x1="903" x2="1071" y1="631.3906" y2="631.3906"/><text fill="#000000" font-family="sans-serif" font-size="14" lengthAdjust="spacing" textLength="158" x="908" y="648.3857">__init__(u, v, **kwargs)</text></g><!--MD5=[3fee75583bb7a64f68d843a3c9534ab3]
class Node--><g id="elem_Node"><rect codeLine="16" fill="#F1F1F1" height="113.1875" id="Node" rx="2.5" ry="2.5" style="stroke:#181818;stroke-width:0.5;" width="159" x="974.5" y="337"/><ellipse cx="1031.25" cy="353" fill="#ADD1B2" rx="11" ry="11" style="stroke:#181818;stroke-width:1.0;"/><path d="M1033.5938,348.6719 C1032.6563,348.2344 1032.0625,348.0938 1031.1875,348.0938 C1028.5625,348.0938 1026.5625,350.1719 1026.5625,352.8906 L1026.5625,354.0156 C1026.5625,356.5938 1028.6719,358.4844 1031.5625,358.4844 C1032.7813,358.4844 1033.9375,358.1875 1034.6875,357.6406 C1035.2656,357.2344 1035.5938,356.7813 1035.5938,356.3906 C1035.5938,355.9375 1035.2031,355.5469 1034.7344,355.5469 C1034.5156,355.5469 1034.3125,355.625 1034.125,355.8125 C1033.6719,356.2969 1033.6719,356.2969 1033.4844,356.3906 C1033.0625,356.6563 1032.375,356.7813 1031.6094,356.7813 C1029.5625,356.7813 1028.2656,355.6875 1028.2656,353.9844 L1028.2656,352.8906 C1028.2656,351.1094 1029.5156,349.7969 1031.25,349.7969 C1031.8281,349.7969 1032.4375,349.9531 1032.9063,350.2031 C1033.3906,350.4844 1033.5625,350.7031 1033.6563,351.1094 C1033.7188,351.5156 1033.75,351.6406 1033.8906,351.7656 C1034.0313,351.9063 1034.2656,352.0156 1034.4844,352.0156 C1034.75,352.0156 1035.0156,351.875 1035.1875,351.6563 C1035.2969,351.5 1035.3281,351.3125 1035.3281,350.8906 L1035.3281,349.4688 C1035.3281,349.0313 1035.3125,348.9063 1035.2188,348.75 C1035.0625,348.4844 1034.7813,348.3438 1034.4844,348.3438 C1034.1875,348.3438 1033.9844,348.4375 1033.7656,348.75 L1033.5938,348.6719 Z " fill="#000000"/><text fill="#000000" font-family="sans-serif" font-size="14" lengthAdjust="spacing" textLength="37" x="1051.75" y="357.8467">Node</text><line style="stroke:#181818;stroke-width:0.5;" x1="975.5" x2="1132.5" y1="369" y2="369"/><text fill="#000000" font-family="sans-serif" font-size="14" lengthAdjust="spacing" textLength="42" x="980.5" y="385.9951">id: int</text><text fill="#000000" font-family="sans-serif" font-size="14" lengthAdjust="spacing" textLength="120" x="980.5" y="402.292">edges: list[Edge]</text><text fill="#000000" font-family="sans-serif" font-size="14" lengthAdjust="spacing" textLength="83" x="980.5" y="418.5889">__dict__: {}</text><line style="stroke:#181818;stroke-width:0.5;" x1="975.5" x2="1132.5" y1="425.8906" y2="425.8906"/><text fill="#000000" font-family="sans-serif" font-size="14" lengthAdjust="spacing" textLength="147" x="980.5" y="442.8857">__init__(id, **kwargs)</text></g><!--MD5=[63bbc1e532ecffc895957e6cdb8737c7]
class BiGraphBuilder--><g id="elem_BiGraphBuilder"><rect codeLine="23" fill="#F1F1F1" height="64.2969" id="BiGraphBuilder" rx="2.5" ry="2.5" style="stroke:#181818;stroke-width:0.5;" width="234" x="1031" y="7"/><ellipse cx="1089.25" cy="23" fill="#A9DCDF" rx="11" ry="11" style="stroke:#181818;stroke-width:1.0;"/><path d="M1091.3281,24.8125 L1091.7188,25.7969 L1091.3281,25.7969 C1090.875,25.7969 1090.7656,25.8125 1090.6094,25.9219 C1090.3594,26.0781 1090.2031,26.3594 1090.2031,26.6563 C1090.2031,26.9219 1090.3438,27.1719 1090.5625,27.3281 C1090.7031,27.4531 1090.9063,27.5 1091.3281,27.5 L1093.6875,27.5 C1094.0469,27.5 1094.2656,27.4688 1094.4063,27.375 C1094.6563,27.2344 1094.8125,26.9375 1094.8125,26.6563 C1094.8125,26.375 1094.6719,26.125 1094.4531,25.9688 C1094.2813,25.8281 1094.125,25.7969 1093.6563,25.7969 L1090.2656,17.5938 L1086.5938,17.5938 C1086.1406,17.5938 1086.0156,17.6094 1085.8594,17.7031 C1085.6094,17.875 1085.4531,18.1563 1085.4531,18.4375 C1085.4531,18.7188 1085.5938,18.9688 1085.8125,19.1406 C1085.9844,19.25 1086.1563,19.2813 1086.5938,19.2813 L1087.6719,19.2813 L1085.0313,25.7969 C1084.6094,25.7969 1084.4531,25.8125 1084.2969,25.9219 C1084.0469,26.0781 1083.8906,26.3594 1083.8906,26.6563 C1083.8906,27.2188 1084.2656,27.5 1085.0156,27.5 L1087.2813,27.5 C1087.6406,27.5 1087.8594,27.4688 1087.9844,27.375 C1088.25,27.2344 1088.3906,26.9375 1088.3906,26.6563 C1088.3906,26.375 1088.2656,26.125 1088.0469,25.9531 C1087.875,25.8281 1087.7344,25.7969 1087.2813,25.7969 L1086.8906,25.7969 L1087.2813,24.8125 L1091.3281,24.8125 Z M1090.625,23.1094 L1087.9531,23.1094 L1089.2969,19.8438 L1090.625,23.1094 Z " fill="#000000"/><text fill="#000000" font-family="sans-serif" font-size="14" font-style="italic" lengthAdjust="spacing" textLength="109" x="1109.75" y="27.8467">BiGraphBuilder</text><line style="stroke:#181818;stroke-width:0.5;" x1="1032" x2="1264" y1="39" y2="39"/><line style="stroke:#181818;stroke-width:0.5;" x1="1032" x2="1264" y1="47" y2="47"/><text fill="#000000" font-family="sans-serif" font-size="14" font-style="italic" lengthAdjust="spacing" textLength="222" x="1037" y="63.9951">build(*args, **kwargs): BiGraph</text></g><!--MD5=[7e31a147aaac349bf0e9a14c24554e01]
class TubemapCSVBuilder--><g id="elem_TubemapCSVBuilder"><rect codeLine="27" fill="#F1F1F1" height="145.7813" id="TubemapCSVBuilder" rx="2.5" ry="2.5" style="stroke:#181818;stroke-width:0.5;" width="385" x="1116.5" y="131"/><ellipse cx="1231.25" cy="147" fill="#ADD1B2" rx="11" ry="11" style="stroke:#181818;stroke-width:1.0;"/><path d="M1233.5938,142.6719 C1232.6563,142.2344 1232.0625,142.0938 1231.1875,142.0938 C1228.5625,142.0938 1226.5625,144.1719 1226.5625,146.8906 L1226.5625,148.0156 C1226.5625,150.5938 1228.6719,152.4844 1231.5625,152.4844 C1232.7813,152.4844 1233.9375,152.1875 1234.6875,151.6406 C1235.2656,151.2344 1235.5938,150.7813 1235.5938,150.3906 C1235.5938,149.9375 1235.2031,149.5469 1234.7344,149.5469 C1234.5156,149.5469 1234.3125,149.625 1234.125,149.8125 C1233.6719,150.2969 1233.6719,150.2969 1233.4844,150.3906 C1233.0625,150.6563 1232.375,150.7813 1231.6094,150.7813 C1229.5625,150.7813 1228.2656,149.6875 1228.2656,147.9844 L1228.2656,146.8906 C1228.2656,145.1094 1229.5156,143.7969 1231.25,143.7969 C1231.8281,143.7969 1232.4375,143.9531 1232.9063,144.2031 C1233.3906,144.4844 1233.5625,144.7031 1233.6563,145.1094 C1233.7188,145.5156 1233.75,145.6406 1233.8906,145.7656 C1234.0313,145.9063 1234.2656,146.0156 1234.4844,146.0156 C1234.75,146.0156 1235.0156,145.875 1235.1875,145.6563 C1235.2969,145.5 1235.3281,145.3125 1235.3281,144.8906 L1235.3281,143.4688 C1235.3281,143.0313 1235.3125,142.9063 1235.2188,142.75 C1235.0625,142.4844 1234.7813,142.3438 1234.4844,142.3438 C1234.1875,142.3438 1233.9844,142.4375 1233.7656,142.75 L1233.5938,142.6719 Z " fill="#000000"/><text fill="#000000" font-family="sans-serif" font-size="14" lengthAdjust="spacing" textLength="147" x="1251.75" y="151.8467">TubemapCSVBuilder</text><line style="stroke:#181818;stroke-width:0.5;" x1="1117.5" x2="1500.5" y1="163" y2="163"/><text fill="#000000" font-family="sans-serif" font-size="14" lengthAdjust="spacing" textLength="77" x="1122.5" y="179.9951">stations: []</text><text fill="#000000" font-family="sans-serif" font-size="14" lengthAdjust="spacing" textLength="107" x="1122.5" y="196.292">connections: []</text><text fill="#000000" font-family="sans-serif" font-size="14" lengthAdjust="spacing" textLength="52" x="1122.5" y="212.5889">lines: []</text><text fill="#000000" font-family="sans-serif" font-size="14" lengthAdjust="spacing" textLength="110" x="1122.5" y="228.8857">id_to_name: {}</text><text fill="#000000" font-family="sans-serif" font-size="14" lengthAdjust="spacing" textLength="110" x="1122.5" y="245.1826">name_to_id: {}</text><line style="stroke:#181818;stroke-width:0.5;" x1="1117.5" x2="1500.5" y1="252.4844" y2="252.4844"/><text fill="#000000" font-family="sans-serif" font-size="14" lengthAdjust="spacing" textLength="373" x="1122.5" y="269.4795">build(stations_fn, connections_fn, lines_fn): BiGraph</text></g><!--MD5=[fd3ec4cf21c628166c5c5e096ff390a5]
class AStarShortestPathMetric--><g id="elem_AStarShortestPathMetric"><rect codeLine="36" fill="#F1F1F1" height="96.8906" id="AStarShortestPathMetric" rx="2.5" ry="2.5" style="stroke:#181818;stroke-width:0.5;" width="266" x="308" y="772.5"/><ellipse cx="346.4" cy="788.5" fill="#ADD1B2" rx="11" ry="11" style="stroke:#181818;stroke-width:1.0;"/><path d="M348.7438,784.1719 C347.8063,783.7344 347.2125,783.5938 346.3375,783.5938 C343.7125,783.5938 341.7125,785.6719 341.7125,788.3906 L341.7125,789.5156 C341.7125,792.0938 343.8219,793.9844 346.7125,793.9844 C347.9313,793.9844 349.0875,793.6875 349.8375,793.1406 C350.4156,792.7344 350.7438,792.2813 350.7438,791.8906 C350.7438,791.4375 350.3531,791.0469 349.8844,791.0469 C349.6656,791.0469 349.4625,791.125 349.275,791.3125 C348.8219,791.7969 348.8219,791.7969 348.6344,791.8906 C348.2125,792.1563 347.525,792.2813 346.7594,792.2813 C344.7125,792.2813 343.4156,791.1875 343.4156,789.4844 L343.4156,788.3906 C343.4156,786.6094 344.6656,785.2969 346.4,785.2969 C346.9781,785.2969 347.5875,785.4531 348.0563,785.7031 C348.5406,785.9844 348.7125,786.2031 348.8063,786.6094 C348.8688,787.0156 348.9,787.1406 349.0406,787.2656 C349.1813,787.4063 349.4156,787.5156 349.6344,787.5156 C349.9,787.5156 350.1656,787.375 350.3375,787.1563 C350.4469,787 350.4781,786.8125 350.4781,786.3906 L350.4781,784.9688 C350.4781,784.5313 350.4625,784.4063 350.3688,784.25 C350.2125,783.9844 349.9313,783.8438 349.6344,783.8438 C349.3375,783.8438 349.1344,783.9375 348.9156,784.25 L348.7438,784.1719 Z " fill="#000000"/><text fill="#000000" font-family="sans-serif" font-size="14" lengthAdjust="spacing" textLength="182" x="365.6" y="793.3467">AStarShortestPathMetric</text><line style="stroke:#181818;stroke-width:0.5;" x1="309" x2="573" y1="804.5" y2="804.5"/><text fill="#000000" font-family="sans-serif" font-size="14" lengthAdjust="spacing" textLength="248" x="314" y="821.4951">heuristic_func: Callable[[int], float]</text><line style="stroke:#181818;stroke-width:0.5;" x1="309" x2="573" y1="828.7969" y2="828.7969"/><text fill="#000000" font-family="sans-serif" font-size="14" lengthAdjust="spacing" textLength="240" x="314" y="845.792">set_heuristic_func(heuristic_func)</text><text fill="#000000" font-family="sans-serif" font-size="14" lengthAdjust="spacing" textLength="254" x="314" y="862.0889">__call__(fr, to, weight_func): list[int]</text></g><!--MD5=[af02d67182bfb2ec3e39f41c00df3e69]
class DijkstraShortestPathMetric--><g id="elem_DijkstraShortestPathMetric"><rect codeLine="42" fill="#F1F1F1" height="64.2969" id="DijkstraShortestPathMetric" rx="2.5" ry="2.5" style="stroke:#181818;stroke-width:0.5;" width="266" x="7" y="954"/><ellipse cx="38.2" cy="970" fill="#ADD1B2" rx="11" ry="11" style="stroke:#181818;stroke-width:1.0;"/><path d="M40.5438,965.6719 C39.6063,965.2344 39.0125,965.0938 38.1375,965.0938 C35.5125,965.0938 33.5125,967.1719 33.5125,969.8906 L33.5125,971.0156 C33.5125,973.5938 35.6219,975.4844 38.5125,975.4844 C39.7313,975.4844 40.8875,975.1875 41.6375,974.6406 C42.2156,974.2344 42.5438,973.7813 42.5438,973.3906 C42.5438,972.9375 42.1531,972.5469 41.6844,972.5469 C41.4656,972.5469 41.2625,972.625 41.075,972.8125 C40.6219,973.2969 40.6219,973.2969 40.4344,973.3906 C40.0125,973.6563 39.325,973.7813 38.5594,973.7813 C36.5125,973.7813 35.2156,972.6875 35.2156,970.9844 L35.2156,969.8906 C35.2156,968.1094 36.4656,966.7969 38.2,966.7969 C38.7781,966.7969 39.3875,966.9531 39.8563,967.2031 C40.3406,967.4844 40.5125,967.7031 40.6063,968.1094 C40.6688,968.5156 40.7,968.6406 40.8406,968.7656 C40.9813,968.9063 41.2156,969.0156 41.4344,969.0156 C41.7,969.0156 41.9656,968.875 42.1375,968.6563 C42.2469,968.5 42.2781,968.3125 42.2781,967.8906 L42.2781,966.4688 C42.2781,966.0313 42.2625,965.9063 42.1688,965.75 C42.0125,965.4844 41.7313,965.3438 41.4344,965.3438 C41.1375,965.3438 40.9344,965.4375 40.7156,965.75 L40.5438,965.6719 Z " fill="#000000"/><text fill="#000000" font-family="sans-serif" font-size="14" lengthAdjust="spacing" textLength="198" x="55.8" y="974.8467">DijkstraShortestPathMetric</text><line style="stroke:#181818;stroke-width:0.5;" x1="8" x2="272" y1="986" y2="986"/><line style="stroke:#181818;stroke-width:0.5;" x1="8" x2="272" y1="994" y2="994"/><text fill="#000000" font-family="sans-serif" font-size="14" lengthAdjust="spacing" textLength="254" x="13" y="1010.9951">__call__(fr, to, weight_func): list[int]</text></g><!--MD5=[34e4d4a4a33ae9e90c706e872b2c45a4]
class CircularDistancePathMetric--><g id="elem_CircularDistancePathMetric"><rect codeLine="46" fill="#F1F1F1" height="64.2969" id="CircularDistancePathMetric" rx="2.5" ry="2.5" style="stroke:#181818;stroke-width:0.5;" width="266" x="308" y="954"/><ellipse cx="340.1" cy="970" fill="#ADD1B2" rx="11" ry="11" style="stroke:#181818;stroke-width:1.0;"/><path d="M342.4438,965.6719 C341.5063,965.2344 340.9125,965.0938 340.0375,965.0938 C337.4125,965.0938 335.4125,967.1719 335.4125,969.8906 L335.4125,971.0156 C335.4125,973.5938 337.5219,975.4844 340.4125,975.4844 C341.6313,975.4844 342.7875,975.1875 343.5375,974.6406 C344.1156,974.2344 344.4438,973.7813 344.4438,973.3906 C344.4438,972.9375 344.0531,972.5469 343.5844,972.5469 C343.3656,972.5469 343.1625,972.625 342.975,972.8125 C342.5219,973.2969 342.5219,973.2969 342.3344,973.3906 C341.9125,973.6563 341.225,973.7813 340.4594,973.7813 C338.4125,973.7813 337.1156,972.6875 337.1156,970.9844 L337.1156,969.8906 C337.1156,968.1094 338.3656,966.7969 340.1,966.7969 C340.6781,966.7969 341.2875,966.9531 341.7563,967.2031 C342.2406,967.4844 342.4125,967.7031 342.5063,968.1094 C342.5688,968.5156 342.6,968.6406 342.7406,968.7656 C342.8813,968.9063 343.1156,969.0156 343.3344,969.0156 C343.6,969.0156 343.8656,968.875 344.0375,968.6563 C344.1469,968.5 344.1781,968.3125 344.1781,967.8906 L344.1781,966.4688 C344.1781,966.0313 344.1625,965.9063 344.0688,965.75 C343.9125,965.4844 343.6313,965.3438 343.3344,965.3438 C343.0375,965.3438 342.8344,965.4375 342.6156,965.75 L342.4438,965.6719 Z " fill="#000000"/><text fill="#000000" font-family="sans-serif" font-size="14" lengthAdjust="spacing" textLength="196" x="357.9" y="974.8467">CircularDistancePathMetric</text><line style="stroke:#181818;stroke-width:0.5;" x1="309" x2="573" y1="986" y2="986"/><line style="stroke:#181818;stroke-width:0.5;" x1="309" x2="573" y1="994" y2="994"/><text fill="#000000" font-family="sans-serif" font-size="14" lengthAdjust="spacing" textLength="254" x="314" y="1010.9951">__call__(fr, to, weight_func): list[int]</text></g><!--MD5=[f412a9f7dab59f9d83da289d48eb4d5f]
class EuclidianDistancePathMetric--><g id="elem_EuclidianDistancePathMetric"><rect codeLine="50" fill="#F1F1F1" height="64.2969" id="EuclidianDistancePathMetric" rx="2.5" ry="2.5" style="stroke:#181818;stroke-width:0.5;" width="266" x="609" y="954"/><ellipse cx="637.05" cy="970" fill="#ADD1B2" rx="11" ry="11" style="stroke:#181818;stroke-width:1.0;"/><path d="M639.3938,965.6719 C638.4563,965.2344 637.8625,965.0938 636.9875,965.0938 C634.3625,965.0938 632.3625,967.1719 632.3625,969.8906 L632.3625,971.0156 C632.3625,973.5938 634.4719,975.4844 637.3625,975.4844 C638.5813,975.4844 639.7375,975.1875 640.4875,974.6406 C641.0656,974.2344 641.3938,973.7813 641.3938,973.3906 C641.3938,972.9375 641.0031,972.5469 640.5344,972.5469 C640.3156,972.5469 640.1125,972.625 639.925,972.8125 C639.4719,973.2969 639.4719,973.2969 639.2844,973.3906 C638.8625,973.6563 638.175,973.7813 637.4094,973.7813 C635.3625,973.7813 634.0656,972.6875 634.0656,970.9844 L634.0656,969.8906 C634.0656,968.1094 635.3156,966.7969 637.05,966.7969 C637.6281,966.7969 638.2375,966.9531 638.7063,967.2031 C639.1906,967.4844 639.3625,967.7031 639.4563,968.1094 C639.5188,968.5156 639.55,968.6406 639.6906,968.7656 C639.8313,968.9063 640.0656,969.0156 640.2844,969.0156 C640.55,969.0156 640.8156,968.875 640.9875,968.6563 C641.0969,968.5 641.1281,968.3125 641.1281,967.8906 L641.1281,966.4688 C641.1281,966.0313 641.1125,965.9063 641.0188,965.75 C640.8625,965.4844 640.5813,965.3438 640.2844,965.3438 C639.9875,965.3438 639.7844,965.4375 639.5656,965.75 L639.3938,965.6719 Z " fill="#000000"/><text fill="#000000" font-family="sans-serif" font-size="14" lengthAdjust="spacing" textLength="205" x="653.95" y="974.8467">EuclidianDistancePathMetric</text><line style="stroke:#181818;stroke-width:0.5;" x1="610" x2="874" y1="986" y2="986"/><line style="stroke:#181818;stroke-width:0.5;" x1="610" x2="874" y1="994" y2="994"/><text fill="#000000" font-family="sans-serif" font-size="14" lengthAdjust="spacing" textLength="254" x="615" y="1010.9951">__call__(fr, to, weight_func): list[int]</text></g><!--MD5=[ab50e78491d96c19bcd086d508744af1]
class PathMetric--><g id="elem_PathMetric"><rect codeLine="54" fill="#F1F1F1" height="178.375" id="PathMetric" rx="2.5" ry="2.5" style="stroke:#181818;stroke-width:0.5;" width="258" x="505" y="510"/><ellipse cx="592.25" cy="526" fill="#A9DCDF" rx="11" ry="11" style="stroke:#181818;stroke-width:1.0;"/><path d="M594.3281,527.8125 L594.7188,528.7969 L594.3281,528.7969 C593.875,528.7969 593.7656,528.8125 593.6094,528.9219 C593.3594,529.0781 593.2031,529.3594 593.2031,529.6563 C593.2031,529.9219 593.3438,530.1719 593.5625,530.3281 C593.7031,530.4531 593.9063,530.5 594.3281,530.5 L596.6875,530.5 C597.0469,530.5 597.2656,530.4688 597.4063,530.375 C597.6563,530.2344 597.8125,529.9375 597.8125,529.6563 C597.8125,529.375 597.6719,529.125 597.4531,528.9688 C597.2813,528.8281 597.125,528.7969 596.6563,528.7969 L593.2656,520.5938 L589.5938,520.5938 C589.1406,520.5938 589.0156,520.6094 588.8594,520.7031 C588.6094,520.875 588.4531,521.1563 588.4531,521.4375 C588.4531,521.7188 588.5938,521.9688 588.8125,522.1406 C588.9844,522.25 589.1563,522.2813 589.5938,522.2813 L590.6719,522.2813 L588.0313,528.7969 C587.6094,528.7969 587.4531,528.8125 587.2969,528.9219 C587.0469,529.0781 586.8906,529.3594 586.8906,529.6563 C586.8906,530.2188 587.2656,530.5 588.0156,530.5 L590.2813,530.5 C590.6406,530.5 590.8594,530.4688 590.9844,530.375 C591.25,530.2344 591.3906,529.9375 591.3906,529.6563 C591.3906,529.375 591.2656,529.125 591.0469,528.9531 C590.875,528.8281 590.7344,528.7969 590.2813,528.7969 L589.8906,528.7969 L590.2813,527.8125 L594.3281,527.8125 Z M593.625,526.1094 L590.9531,526.1094 L592.2969,522.8438 L593.625,526.1094 Z " fill="#000000"/><text fill="#000000" font-family="sans-serif" font-size="14" font-style="italic" lengthAdjust="spacing" textLength="75" x="612.75" y="530.8467">PathMetric</text><line style="stroke:#181818;stroke-width:0.5;" x1="506" x2="762" y1="542" y2="542"/><text fill="#000000" font-family="sans-serif" font-size="14" lengthAdjust="spacing" textLength="135" x="511" y="558.9951">edges_counter: int</text><text fill="#000000" font-family="sans-serif" font-size="14" lengthAdjust="spacing" textLength="135" x="511" y="575.292">nodes_counter: int</text><text fill="#000000" font-family="sans-serif" font-size="14" lengthAdjust="spacing" textLength="164" x="511" y="591.5889">relaxation_counter: int</text><line style="stroke:#181818;stroke-width:0.5;" x1="506" x2="762" y1="598.8906" y2="598.8906"/><text fill="#000000" font-family="sans-serif" font-size="14" lengthAdjust="spacing" textLength="118" x="511" y="615.8857">reset_counters()</text><text fill="#000000" font-family="sans-serif" font-size="14" lengthAdjust="spacing" textLength="198" x="511" y="632.1826">increment_edges_counter()</text><text fill="#000000" font-family="sans-serif" font-size="14" lengthAdjust="spacing" textLength="198" x="511" y="648.4795">increment_nodes_counter()</text><text fill="#000000" font-family="sans-serif" font-size="14" lengthAdjust="spacing" textLength="227" x="511" y="664.7764">increment_relaxation_counter()</text><text fill="#000000" font-family="sans-serif" font-size="14" font-style="italic" lengthAdjust="spacing" textLength="246" x="511" y="681.0732">__call__(fr, to, weight_func): list[int]</text></g><!--MD5=[5f0b4f7f118e96bc60096f471b0b5eda]
class GraphMetric--><g id="elem_GraphMetric"><rect codeLine="65" fill="#F1F1F1" height="96.8906" id="GraphMetric" rx="2.5" ry="2.5" style="stroke:#181818;stroke-width:0.5;" width="121" x="573.5" y="345"/><ellipse cx="588.95" cy="361" fill="#A9DCDF" rx="11" ry="11" style="stroke:#181818;stroke-width:1.0;"/><path d="M591.0281,362.8125 L591.4188,363.7969 L591.0281,363.7969 C590.575,363.7969 590.4656,363.8125 590.3094,363.9219 C590.0594,364.0781 589.9031,364.3594 589.9031,364.6563 C589.9031,364.9219 590.0438,365.1719 590.2625,365.3281 C590.4031,365.4531 590.6063,365.5 591.0281,365.5 L593.3875,365.5 C593.7469,365.5 593.9656,365.4688 594.1063,365.375 C594.3563,365.2344 594.5125,364.9375 594.5125,364.6563 C594.5125,364.375 594.3719,364.125 594.1531,363.9688 C593.9813,363.8281 593.825,363.7969 593.3563,363.7969 L589.9656,355.5938 L586.2938,355.5938 C585.8406,355.5938 585.7156,355.6094 585.5594,355.7031 C585.3094,355.875 585.1531,356.1563 585.1531,356.4375 C585.1531,356.7188 585.2938,356.9688 585.5125,357.1406 C585.6844,357.25 585.8563,357.2813 586.2938,357.2813 L587.3719,357.2813 L584.7313,363.7969 C584.3094,363.7969 584.1531,363.8125 583.9969,363.9219 C583.7469,364.0781 583.5906,364.3594 583.5906,364.6563 C583.5906,365.2188 583.9656,365.5 584.7156,365.5 L586.9813,365.5 C587.3406,365.5 587.5594,365.4688 587.6844,365.375 C587.95,365.2344 588.0906,364.9375 588.0906,364.6563 C588.0906,364.375 587.9656,364.125 587.7469,363.9531 C587.575,363.8281 587.4344,363.7969 586.9813,363.7969 L586.5906,363.7969 L586.9813,362.8125 L591.0281,362.8125 Z M590.325,361.1094 L587.6531,361.1094 L588.9969,357.8438 L590.325,361.1094 Z " fill="#000000"/><text fill="#000000" font-family="sans-serif" font-size="14" font-style="italic" lengthAdjust="spacing" textLength="88" x="603.05" y="365.8467">GraphMetric</text><line style="stroke:#181818;stroke-width:0.5;" x1="574.5" x2="693.5" y1="377" y2="377"/><text fill="#000000" font-family="sans-serif" font-size="14" lengthAdjust="spacing" textLength="109" x="579.5" y="393.9951">graph: BiGraph</text><line style="stroke:#181818;stroke-width:0.5;" x1="574.5" x2="693.5" y1="401.2969" y2="401.2969"/><text fill="#000000" font-family="sans-serif" font-size="14" lengthAdjust="spacing" textLength="104" x="579.5" y="418.292">__init__(graph)</text><text fill="#000000" font-family="sans-serif" font-size="14" font-style="italic" lengthAdjust="spacing" textLength="63" x="579.5" y="434.5889">__call__()</text></g><!--MD5=[28a29bab075218782426104dbe1251a8]
class TubemapItinerary--><g id="elem_TubemapItinerary"><rect codeLine="71" fill="#F1F1F1" height="145.7813" id="TubemapItinerary" rx="2.5" ry="2.5" style="stroke:#181818;stroke-width:0.5;" width="435" x="609.5" y="748"/><ellipse cx="758.25" cy="764" fill="#ADD1B2" rx="11" ry="11" style="stroke:#181818;stroke-width:1.0;"/><path d="M760.5938,759.6719 C759.6563,759.2344 759.0625,759.0938 758.1875,759.0938 C755.5625,759.0938 753.5625,761.1719 753.5625,763.8906 L753.5625,765.0156 C753.5625,767.5938 755.6719,769.4844 758.5625,769.4844 C759.7813,769.4844 760.9375,769.1875 761.6875,768.6406 C762.2656,768.2344 762.5938,767.7813 762.5938,767.3906 C762.5938,766.9375 762.2031,766.5469 761.7344,766.5469 C761.5156,766.5469 761.3125,766.625 761.125,766.8125 C760.6719,767.2969 760.6719,767.2969 760.4844,767.3906 C760.0625,767.6563 759.375,767.7813 758.6094,767.7813 C756.5625,767.7813 755.2656,766.6875 755.2656,764.9844 L755.2656,763.8906 C755.2656,762.1094 756.5156,760.7969 758.25,760.7969 C758.8281,760.7969 759.4375,760.9531 759.9063,761.2031 C760.3906,761.4844 760.5625,761.7031 760.6563,762.1094 C760.7188,762.5156 760.75,762.6406 760.8906,762.7656 C761.0313,762.9063 761.2656,763.0156 761.4844,763.0156 C761.75,763.0156 762.0156,762.875 762.1875,762.6563 C762.2969,762.5 762.3281,762.3125 762.3281,761.8906 L762.3281,760.4688 C762.3281,760.0313 762.3125,759.9063 762.2188,759.75 C762.0625,759.4844 761.7813,759.3438 761.4844,759.3438 C761.1875,759.3438 760.9844,759.4375 760.7656,759.75 L760.5938,759.6719 Z " fill="#000000"/><text fill="#000000" font-family="sans-serif" font-size="14" lengthAdjust="spacing" textLength="129" x="778.75" y="768.8467">TubemapItinerary</text><line style="stroke:#181818;stroke-width:0.5;" x1="610.5" x2="1043.5" y1="780" y2="780"/><text fill="#000000" font-family="sans-serif" font-size="14" lengthAdjust="spacing" textLength="89" x="615.5" y="796.9951">station1: int</text><text fill="#000000" font-family="sans-serif" font-size="14" lengthAdjust="spacing" textLength="88" x="615.5" y="813.292">station2: int</text><text fill="#000000" font-family="sans-serif" font-size="14" lengthAdjust="spacing" textLength="203" x="615.5" y="829.5889">search_strategy: PathMetric</text><line style="stroke:#181818;stroke-width:0.5;" x1="610.5" x2="1043.5" y1="836.8906" y2="836.8906"/><text fill="#000000" font-family="sans-serif" font-size="14" lengthAdjust="spacing" textLength="98" x="615.5" y="853.8857">__init__(fr, to)</text><text fill="#000000" font-family="sans-serif" font-size="14" lengthAdjust="spacing" textLength="216" x="615.5" y="870.1826">set_search_strategy(strategy)</text><text fill="#000000" font-family="sans-serif" font-size="14" lengthAdjust="spacing" textLength="423" x="615.5" y="886.4795">shortest_path(time_weight, conn_weight, transfer_weight)</text></g><!--MD5=[84b34589645bee0efc47ecaea894c4f7]
class DegreeMetric--><g id="elem_DegreeMetric"><rect codeLine="80" fill="#F1F1F1" height="96.8906" id="DegreeMetric" rx="2.5" ry="2.5" style="stroke:#181818;stroke-width:0.5;" width="132" x="265" y="155.5"/><ellipse cx="280.45" cy="171.5" fill="#ADD1B2" rx="11" ry="11" style="stroke:#181818;stroke-width:1.0;"/><path d="M282.7938,167.1719 C281.8563,166.7344 281.2625,166.5938 280.3875,166.5938 C277.7625,166.5938 275.7625,168.6719 275.7625,171.3906 L275.7625,172.5156 C275.7625,175.0938 277.8719,176.9844 280.7625,176.9844 C281.9813,176.9844 283.1375,176.6875 283.8875,176.1406 C284.4656,175.7344 284.7938,175.2813 284.7938,174.8906 C284.7938,174.4375 284.4031,174.0469 283.9344,174.0469 C283.7156,174.0469 283.5125,174.125 283.325,174.3125 C282.8719,174.7969 282.8719,174.7969 282.6844,174.8906 C282.2625,175.1563 281.575,175.2813 280.8094,175.2813 C278.7625,175.2813 277.4656,174.1875 277.4656,172.4844 L277.4656,171.3906 C277.4656,169.6094 278.7156,168.2969 280.45,168.2969 C281.0281,168.2969 281.6375,168.4531 282.1063,168.7031 C282.5906,168.9844 282.7625,169.2031 282.8563,169.6094 C282.9188,170.0156 282.95,170.1406 283.0906,170.2656 C283.2313,170.4063 283.4656,170.5156 283.6844,170.5156 C283.95,170.5156 284.2156,170.375 284.3875,170.1563 C284.4969,170 284.5281,169.8125 284.5281,169.3906 L284.5281,167.9688 C284.5281,167.5313 284.5125,167.4063 284.4188,167.25 C284.2625,166.9844 283.9813,166.8438 283.6844,166.8438 C283.3875,166.8438 283.1844,166.9375 282.9656,167.25 L282.7938,167.1719 Z " fill="#000000"/><text fill="#000000" font-family="sans-serif" font-size="14" lengthAdjust="spacing" textLength="99" x="294.55" y="176.3467">DegreeMetric</text><line style="stroke:#181818;stroke-width:0.5;" x1="266" x2="396" y1="187.5" y2="187.5"/><text fill="#000000" font-family="sans-serif" font-size="14" lengthAdjust="spacing" textLength="37" x="271" y="204.4951">u: int</text><line style="stroke:#181818;stroke-width:0.5;" x1="266" x2="396" y1="211.7969" y2="211.7969"/><text fill="#000000" font-family="sans-serif" font-size="14" lengthAdjust="spacing" textLength="120" x="271" y="228.792">__init__(graph, u)</text><text fill="#000000" font-family="sans-serif" font-size="14" lengthAdjust="spacing" textLength="91" x="271" y="245.0889">__call__(): int</text></g><!--MD5=[0d3386d675b2fdb6dbaab6a939785460]
class NumberOfEdgesMetric--><g id="elem_NumberOfEdgesMetric"><rect codeLine="86" fill="#F1F1F1" height="64.2969" id="NumberOfEdgesMetric" rx="2.5" ry="2.5" style="stroke:#181818;stroke-width:0.5;" width="195" x="432.5" y="172"/><ellipse cx="447.5" cy="188" fill="#ADD1B2" rx="11" ry="11" style="stroke:#181818;stroke-width:1.0;"/><path d="M449.8438,183.6719 C448.9063,183.2344 448.3125,183.0938 447.4375,183.0938 C444.8125,183.0938 442.8125,185.1719 442.8125,187.8906 L442.8125,189.0156 C442.8125,191.5938 444.9219,193.4844 447.8125,193.4844 C449.0313,193.4844 450.1875,193.1875 450.9375,192.6406 C451.5156,192.2344 451.8438,191.7813 451.8438,191.3906 C451.8438,190.9375 451.4531,190.5469 450.9844,190.5469 C450.7656,190.5469 450.5625,190.625 450.375,190.8125 C449.9219,191.2969 449.9219,191.2969 449.7344,191.3906 C449.3125,191.6563 448.625,191.7813 447.8594,191.7813 C445.8125,191.7813 444.5156,190.6875 444.5156,188.9844 L444.5156,187.8906 C444.5156,186.1094 445.7656,184.7969 447.5,184.7969 C448.0781,184.7969 448.6875,184.9531 449.1563,185.2031 C449.6406,185.4844 449.8125,185.7031 449.9063,186.1094 C449.9688,186.5156 450,186.6406 450.1406,186.7656 C450.2813,186.9063 450.5156,187.0156 450.7344,187.0156 C451,187.0156 451.2656,186.875 451.4375,186.6563 C451.5469,186.5 451.5781,186.3125 451.5781,185.8906 L451.5781,184.4688 C451.5781,184.0313 451.5625,183.9063 451.4688,183.75 C451.3125,183.4844 451.0313,183.3438 450.7344,183.3438 C450.4375,183.3438 450.2344,183.4375 450.0156,183.75 L449.8438,183.6719 Z " fill="#000000"/><text fill="#000000" font-family="sans-serif" font-size="14" lengthAdjust="spacing" textLength="163" x="461.5" y="192.8467">NumberOfEdgesMetric</text><line style="stroke:#181818;stroke-width:0.5;" x1="433.5" x2="626.5" y1="204" y2="204"/><line style="stroke:#181818;stroke-width:0.5;" x1="433.5" x2="626.5" y1="212" y2="212"/><text fill="#000000" font-family="sans-serif" font-size="14" lengthAdjust="spacing" textLength="91" x="438.5" y="228.9951">__call__(): int</text></g><!--MD5=[c99bf51f4a4fcdec7096344ffcfafb8f]
class NumberOfNodesMetric--><g id="elem_NumberOfNodesMetric"><rect codeLine="90" fill="#F1F1F1" height="64.2969" id="NumberOfNodesMetric" rx="2.5" ry="2.5" style="stroke:#181818;stroke-width:0.5;" width="196" x="663" y="172"/><ellipse cx="678" cy="188" fill="#ADD1B2" rx="11" ry="11" style="stroke:#181818;stroke-width:1.0;"/><path d="M680.3438,183.6719 C679.4063,183.2344 678.8125,183.0938 677.9375,183.0938 C675.3125,183.0938 673.3125,185.1719 673.3125,187.8906 L673.3125,189.0156 C673.3125,191.5938 675.4219,193.4844 678.3125,193.4844 C679.5313,193.4844 680.6875,193.1875 681.4375,192.6406 C682.0156,192.2344 682.3438,191.7813 682.3438,191.3906 C682.3438,190.9375 681.9531,190.5469 681.4844,190.5469 C681.2656,190.5469 681.0625,190.625 680.875,190.8125 C680.4219,191.2969 680.4219,191.2969 680.2344,191.3906 C679.8125,191.6563 679.125,191.7813 678.3594,191.7813 C676.3125,191.7813 675.0156,190.6875 675.0156,188.9844 L675.0156,187.8906 C675.0156,186.1094 676.2656,184.7969 678,184.7969 C678.5781,184.7969 679.1875,184.9531 679.6563,185.2031 C680.1406,185.4844 680.3125,185.7031 680.4063,186.1094 C680.4688,186.5156 680.5,186.6406 680.6406,186.7656 C680.7813,186.9063 681.0156,187.0156 681.2344,187.0156 C681.5,187.0156 681.7656,186.875 681.9375,186.6563 C682.0469,186.5 682.0781,186.3125 682.0781,185.8906 L682.0781,184.4688 C682.0781,184.0313 682.0625,183.9063 681.9688,183.75 C681.8125,183.4844 681.5313,183.3438 681.2344,183.3438 C680.9375,183.3438 680.7344,183.4375 680.5156,183.75 L680.3438,183.6719 Z " fill="#000000"/><text fill="#000000" font-family="sans-serif" font-size="14" lengthAdjust="spacing" textLength="164" x="692" y="192.8467">NumberOfNodesMetric</text><line style="stroke:#181818;stroke-width:0.5;" x1="664" x2="858" y1="204" y2="204"/><line style="stroke:#181818;stroke-width:0.5;" x1="664" x2="858" y1="212" y2="212"/><text fill="#000000" font-family="sans-serif" font-size="14" lengthAdjust="spacing" textLength="91" x="669" y="228.9951">__call__(): int</text></g><!--MD5=[ddafb8ed15dc57ca0d3e9f88bf227c11]
reverse link BiGraph to Edge--><g id="link_BiGraph_Edge"><path codeLine="94" d="M966.889,281.493 C962.783,299.554 959.104,318.842 957,337 C951.22,386.889 951.986,400.029 957,450 C960.088,480.782 966.704,514.631 972.938,542.18 " fill="none" id="BiGraph-backto-Edge" style="stroke:#181818;stroke-width:1.0;"/><polygon fill="none" points="969.938,268.593,964.6652,273.5121,967.178,280.2713,972.4508,275.3521,969.938,268.593" style="stroke:#181818;stroke-width:1.0;"/></g><!--MD5=[6eb0eac27f1d3764baf76183343a1c82]
reverse link BiGraph to Node--><g id="link_BiGraph_Node"><path codeLine="95" d="M1014.79,281.119 C1021.35,299.736 1028.24,319.315 1034.38,336.775 " fill="none" id="BiGraph-backto-Node" style="stroke:#181818;stroke-width:1.0;"/><polygon fill="none" points="1010.44,268.741,1008.6579,275.7284,1014.4224,280.0609,1016.2045,273.0735,1010.44,268.741" style="stroke:#181818;stroke-width:1.0;"/></g><!--MD5=[0901dc0160ef869976477107d0255705]
reverse link Node to Edge--><g id="link_Node_Edge"><path codeLine="96" d="M1031.59,462.555 C1023.04,488.523 1013.41,517.792 1005.286,542.46 " fill="none" id="Node-backto-Edge" style="stroke:#181818;stroke-width:1.0;"/><polygon fill="none" points="1035.69,450.107,1030.0152,454.5563,1031.9396,461.5059,1037.6144,457.0566,1035.69,450.107" style="stroke:#181818;stroke-width:1.0;"/></g><!--MD5=[54b422f9974fd3007e88872733fa56fb]
link BiGraphBuilder to BiGraph--><g id="link_BiGraphBuilder_BiGraph"><path codeLine="97" d="M1117.53,71.043 C1099.54,89.368 1076.05,113.303 1054.01,135.75 " fill="none" id="BiGraphBuilder-to-BiGraph" style="stroke:#181818;stroke-width:1.0;"/><polygon fill="#181818" points="1050.49,139.339,1059.6477,135.7145,1053.9911,135.7694,1053.9363,130.1128,1050.49,139.339" style="stroke:#181818;stroke-width:1.0;"/></g><!--MD5=[3e3e51b9c7c64f881d712787af22e29a]
reverse link BiGraphBuilder to TubemapCSVBuilder--><g id="link_BiGraphBuilder_TubemapCSVBuilder"><path codeLine="98" d="M1192.94,85.502 C1206.84,99.573 1222.51,115.435 1237.73,130.846 " fill="none" id="BiGraphBuilder-backto-TubemapCSVBuilder" style="stroke:#181818;stroke-width:1.0;"/><polygon fill="none" points="1187.74,90.191,1178.66,71.043,1197.7,80.353,1187.74,90.191" style="stroke:#181818;stroke-width:1.0;"/></g><!--MD5=[b1bba6a56b0fb6112661a94e59403675]
reverse link PathMetric to AStarShortestPathMetric--><g id="link_PathMetric_AStarShortestPathMetric"><path codeLine="99" d="M543.211,703.491 C522.126,727.525 500.677,751.975 482.908,772.229 " fill="none" id="PathMetric-backto-AStarShortestPathMetric" style="stroke:#181818;stroke-width:1.0;"/><polygon fill="none" points="538.16,698.633,556.612,688.215,548.684,707.866,538.16,698.633" style="stroke:#181818;stroke-width:1.0;"/></g><!--MD5=[b51f97adba7230f78c038a5e2f2eaecb]
reverse link AStarShortestPathMetric to DijkstraShortestPathMetric--><g id="link_AStarShortestPathMetric_DijkstraShortestPathMetric"><path codeLine="100" d="M335.387,879.193 C289.052,904.284 236.47,932.759 197.534,953.8438 " fill="none" id="AStarShortestPathMetric-backto-DijkstraShortestPathMetric" style="stroke:#181818;stroke-width:1.0;"/><polygon fill="none" points="332.209,872.953,353.129,869.585,338.876,885.264,332.209,872.953" style="stroke:#181818;stroke-width:1.0;"/></g><!--MD5=[e2e11fd944d9364ffa04e4af4042d755]
reverse link AStarShortestPathMetric to CircularDistancePathMetric--><g id="link_AStarShortestPathMetric_CircularDistancePathMetric"><path codeLine="101" d="M441,889.756 C441,911.909 441,935.457 441,953.5961 " fill="none" id="AStarShortestPathMetric-backto-CircularDistancePathMetric" style="stroke:#181818;stroke-width:1.0;"/><polygon fill="none" points="434,889.585,441,869.585,448,889.584,434,889.585" style="stroke:#181818;stroke-width:1.0;"/></g><!--MD5=[23d476a393f28014b90f7a14c20c92b2]
reverse link AStarShortestPathMetric to EuclidianDistancePathMetric--><g id="link_AStarShortestPathMetric_EuclidianDistancePathMetric"><path codeLine="102" d="M546.613,879.193 C592.948,904.284 645.53,932.759 684.466,953.8438 " fill="none" id="AStarShortestPathMetric-backto-EuclidianDistancePathMetric" style="stroke:#181818;stroke-width:1.0;"/><polygon fill="none" points="543.124,885.264,528.871,869.585,549.791,872.953,543.124,885.264" style="stroke:#181818;stroke-width:1.0;"/></g><!--MD5=[1ebdbc201648e865f5d6a794c35f0788]
reverse link GraphMetric to PathMetric--><g id="link_GraphMetric_PathMetric"><path codeLine="103" d="M634,462.437 C634,477.642 634,493.984 634,509.875 " fill="none" id="GraphMetric-backto-PathMetric" style="stroke:#181818;stroke-width:1.0;"/><polygon fill="none" points="627,462.212,634,442.212,641,462.212,627,462.212" style="stroke:#181818;stroke-width:1.0;"/></g><!--MD5=[26dac5f435365a078dec2d07b120332e]
link BiGraph to GraphMetric--><g id="link_BiGraph_GraphMetric"><path codeLine="104" d="M894.36,266.956 C888.533,270.432 882.715,273.807 877,277 C821.178,308.193 755.568,339.053 706.603,361.017 " fill="none" id="BiGraph-to-GraphMetric" style="stroke:#181818;stroke-width:1.0;"/><polygon fill="none" points="694.528,366.404,701.6372,367.6123,705.4868,361.5147,698.3776,360.3064,694.528,366.404" style="stroke:#181818;stroke-width:1.0;"/></g><!--MD5=[9808d15f7a1a15f9b670561bfe5457ae]
reverse link PathMetric to TubemapItinerary--><g id="link_PathMetric_TubemapItinerary"><path codeLine="105" d="M720.016,698.049 C734.752,714.847 749.818,732.02 763.817,747.978 " fill="none" id="PathMetric-backto-TubemapItinerary" style="stroke:#181818;stroke-width:1.0;"/><polygon fill="none" points="711.388,688.215,712.3377,695.3633,719.3013,697.236,718.3517,690.0877,711.388,688.215" style="stroke:#181818;stroke-width:1.0;"/></g><!--MD5=[bcb1bb6fdf7105f102fe9814a5ad04da]
link DegreeMetric to GraphMetric--><g id="link_DegreeMetric_GraphMetric"><path codeLine="106" d="M382.892,252.58 C393.208,261.136 404.198,269.658 415,277 C459.283,307.1 512.323,335.254 555.113,356.229 " fill="none" id="DegreeMetric-to-GraphMetric" style="stroke:#181818;stroke-width:1.0;"/><polygon fill="none" points="558.412,350.048,573.375,365.052,552.321,362.654,558.412,350.048" style="stroke:#181818;stroke-width:1.0;"/></g><!--MD5=[c0b76adb54edc1c15cfd0ce8ba1a8f2a]
link NumberOfEdgesMetric to GraphMetric--><g id="link_NumberOfEdgesMetric_GraphMetric"><path codeLine="107" d="M547.407,236.383 C561.135,261.133 580.75,296.496 597.841,327.309 " fill="none" id="NumberOfEdgesMetric-to-GraphMetric" style="stroke:#181818;stroke-width:1.0;"/><polygon fill="none" points="603.969,323.926,607.548,344.811,591.726,330.716,603.969,323.926" style="stroke:#181818;stroke-width:1.0;"/></g><!--MD5=[36269d59ce455a41ba91fdbead57db9e]
link NumberOfNodesMetric to GraphMetric--><g id="link_NumberOfNodesMetric_GraphMetric"><path codeLine="108" d="M739.743,236.383 C722.822,261.365 698.578,297.158 677.572,328.172 " fill="none" id="NumberOfNodesMetric-to-GraphMetric" style="stroke:#181818;stroke-width:1.0;"/><polygon fill="none" points="683.313,332.177,666.302,344.811,671.722,324.326,683.313,332.177" style="stroke:#181818;stroke-width:1.0;"/></g><!--MD5=[07f5d9350ccdf9b0d0b717c4ebd78260]
@startuml
class BiGraph {
  adj: Dict[int, Node]
  edges: int
  __init__()
  add_node(u, **kwargs)
  add_edge(u, v, **kwargs)
}

class Edge {
  fr: int
  to: int
  __dict__: {}
  __init__(u, v, **kwargs)
}

class Node {
  id: int
  edges: list[Edge]
  __dict__: {}
  __init__(id, **kwargs)
}

abstract class BiGraphBuilder {
  {abstract} build(*args, **kwargs): BiGraph
}

class TubemapCSVBuilder {
  stations: []
  connections: []
  lines: []
  id_to_name: {}
  name_to_id: {}
  build(stations_fn, connections_fn, lines_fn): BiGraph
}

class AStarShortestPathMetric {
  heuristic_func: Callable[[int], float]
  set_heuristic_func(heuristic_func)
  __call__(fr, to, weight_func): list[int]
}

class DijkstraShortestPathMetric {
  __call__(fr, to, weight_func): list[int]
}

class CircularDistancePathMetric {
  __call__(fr, to, weight_func): list[int]
}

class EuclidianDistancePathMetric {
  __call__(fr, to, weight_func): list[int]
}

abstract class PathMetric {
  edges_counter: int
  nodes_counter: int
  relaxation_counter: int
  reset_counters()
  increment_edges_counter()
  increment_nodes_counter()
  increment_relaxation_counter()
  {abstract} __call__(fr, to, weight_func): list[int]
}

abstract class GraphMetric {
  graph: BiGraph
  __init__(graph)
  {abstract} __call__()
}

class TubemapItinerary {
  station1: int
  station2: int
  search_strategy: PathMetric
  __init__(fr, to)
  set_search_strategy(strategy)
  shortest_path(time_weight, conn_weight, transfer_weight)
}

class DegreeMetric {
  u: int
  __init__(graph, u)
  __call__(): int
}

class NumberOfEdgesMetric {
  __call__(): int  
}

class NumberOfNodesMetric {
  __call__(): int
}

BiGraph o- - Edge
BiGraph o- - Node
Node o- - Edge
BiGraphBuilder - -> BiGraph
BiGraphBuilder <|- - TubemapCSVBuilder
PathMetric <|- - AStarShortestPathMetric
AStarShortestPathMetric <|- - DijkstraShortestPathMetric
AStarShortestPathMetric <|- - CircularDistancePathMetric 
AStarShortestPathMetric <|- - EuclidianDistancePathMetric
GraphMetric <|- - PathMetric
BiGraph - -o GraphMetric
PathMetric o- - TubemapItinerary
DegreeMetric - -|> GraphMetric
NumberOfEdgesMetric - -|> GraphMetric
NumberOfNodesMetric - -|> GraphMetric
@enduml

PlantUML version 1.2022.8beta8(Unknown compile time)
(GPL source distribution)
Java Runtime: Java(TM) SE Runtime Environment
JVM: Java HotSpot(TM) 64-Bit Server VM
Default Encoding: UTF-8
Language: en
Country: US
--></g></svg>