<?xml version="1.0" encoding="UTF-8" standalone="no"?><svg xmlns="http://www.w3.org/2000/svg" xmlns:xlink="http://www.w3.org/1999/xlink" contentStyleType="text/css" height="1025px" preserveAspectRatio="none" style="width:1996px;height:1025px;background:#FFFFFF;" version="1.1" viewBox="0 0 1996 1025" width="1996px" zoomAndPan="magnify"><defs/><g><!--MD5=[3b331e16166b544567ee9c692521d86c]
class BiGraph--><g id="elem_BiGraph"><rect codeLine="1" fill="#F1F1F1" height="129.4844" id="BiGraph" rx="2.5" ry="2.5" style="stroke:#181818;stroke-width:0.5;" width="187" x="1368.5" y="139.5"/><ellipse cx="1428.75" cy="155.5" fill="#ADD1B2" rx="11" ry="11" style="stroke:#181818;stroke-width:1.0;"/><path d="M1431.0938,151.1719 C1430.1563,150.7344 1429.5625,150.5938 1428.6875,150.5938 C1426.0625,150.5938 1424.0625,152.6719 1424.0625,155.3906 L1424.0625,156.5156 C1424.0625,159.0938 1426.1719,160.9844 1429.0625,160.9844 C1430.2813,160.9844 1431.4375,160.6875 1432.1875,160.1406 C1432.7656,159.7344 1433.0938,159.2813 1433.0938,158.8906 C1433.0938,158.4375 1432.7031,158.0469 1432.2344,158.0469 C1432.0156,158.0469 1431.8125,158.125 1431.625,158.3125 C1431.1719,158.7969 1431.1719,158.7969 1430.9844,158.8906 C1430.5625,159.1563 1429.875,159.2813 1429.1094,159.2813 C1427.0625,159.2813 1425.7656,158.1875 1425.7656,156.4844 L1425.7656,155.3906 C1425.7656,153.6094 1427.0156,152.2969 1428.75,152.2969 C1429.3281,152.2969 1429.9375,152.4531 1430.4063,152.7031 C1430.8906,152.9844 1431.0625,153.2031 1431.1563,153.6094 C1431.2188,154.0156 1431.25,154.1406 1431.3906,154.2656 C1431.5313,154.4063 1431.7656,154.5156 1431.9844,154.5156 C1432.25,154.5156 1432.5156,154.375 1432.6875,154.1563 C1432.7969,154 1432.8281,153.8125 1432.8281,153.3906 L1432.8281,151.9688 C1432.8281,151.5313 1432.8125,151.4063 1432.7188,151.25 C1432.5625,150.9844 1432.2813,150.8438 1431.9844,150.8438 C1431.6875,150.8438 1431.4844,150.9375 1431.2656,151.25 L1431.0938,151.1719 Z " fill="#000000"/><text fill="#000000" font-family="sans-serif" font-size="14" lengthAdjust="spacing" textLength="58" x="1449.25" y="160.3467">BiGraph</text><line style="stroke:#181818;stroke-width:0.5;" x1="1369.5" x2="1554.5" y1="171.5" y2="171.5"/><text fill="#000000" font-family="sans-serif" font-size="14" lengthAdjust="spacing" textLength="135" x="1374.5" y="188.4951">adj: Dict[int, Node]</text><text fill="#000000" font-family="sans-serif" font-size="14" lengthAdjust="spacing" textLength="72" x="1374.5" y="204.792">edges: int</text><line style="stroke:#181818;stroke-width:0.5;" x1="1369.5" x2="1554.5" y1="212.0938" y2="212.0938"/><text fill="#000000" font-family="sans-serif" font-size="14" lengthAdjust="spacing" textLength="62" x="1374.5" y="229.0889">__init__()</text><text fill="#000000" font-family="sans-serif" font-size="14" lengthAdjust="spacing" textLength="159" x="1374.5" y="245.3857">add_node(u, **kwargs)</text><text fill="#000000" font-family="sans-serif" font-size="14" lengthAdjust="spacing" textLength="175" x="1374.5" y="261.6826">add_edge(u, v, **kwargs)</text></g><!--MD5=[2e2f8c8f62c4eb3bc59a59727cfd81a5]
class Edge--><g id="elem_Edge"><rect codeLine="9" fill="#F1F1F1" height="113.1875" id="Edge" rx="2.5" ry="2.5" style="stroke:#181818;stroke-width:0.5;" width="170" x="1376" y="542.5"/><ellipse cx="1438.75" cy="558.5" fill="#ADD1B2" rx="11" ry="11" style="stroke:#181818;stroke-width:1.0;"/><path d="M1441.0938,554.1719 C1440.1563,553.7344 1439.5625,553.5938 1438.6875,553.5938 C1436.0625,553.5938 1434.0625,555.6719 1434.0625,558.3906 L1434.0625,559.5156 C1434.0625,562.0938 1436.1719,563.9844 1439.0625,563.9844 C1440.2813,563.9844 1441.4375,563.6875 1442.1875,563.1406 C1442.7656,562.7344 1443.0938,562.2813 1443.0938,561.8906 C1443.0938,561.4375 1442.7031,561.0469 1442.2344,561.0469 C1442.0156,561.0469 1441.8125,561.125 1441.625,561.3125 C1441.1719,561.7969 1441.1719,561.7969 1440.9844,561.8906 C1440.5625,562.1563 1439.875,562.2813 1439.1094,562.2813 C1437.0625,562.2813 1435.7656,561.1875 1435.7656,559.4844 L1435.7656,558.3906 C1435.7656,556.6094 1437.0156,555.2969 1438.75,555.2969 C1439.3281,555.2969 1439.9375,555.4531 1440.4063,555.7031 C1440.8906,555.9844 1441.0625,556.2031 1441.1563,556.6094 C1441.2188,557.0156 1441.25,557.1406 1441.3906,557.2656 C1441.5313,557.4063 1441.7656,557.5156 1441.9844,557.5156 C1442.25,557.5156 1442.5156,557.375 1442.6875,557.1563 C1442.7969,557 1442.8281,556.8125 1442.8281,556.3906 L1442.8281,554.9688 C1442.8281,554.5313 1442.8125,554.4063 1442.7188,554.25 C1442.5625,553.9844 1442.2813,553.8438 1441.9844,553.8438 C1441.6875,553.8438 1441.4844,553.9375 1441.2656,554.25 L1441.0938,554.1719 Z " fill="#000000"/><text fill="#000000" font-family="sans-serif" font-size="14" lengthAdjust="spacing" textLength="36" x="1459.25" y="563.3467">Edge</text><line style="stroke:#181818;stroke-width:0.5;" x1="1377" x2="1545" y1="574.5" y2="574.5"/><text fill="#000000" font-family="sans-serif" font-size="14" lengthAdjust="spacing" textLength="41" x="1382" y="591.4951">fr: int</text><text fill="#000000" font-family="sans-serif" font-size="14" lengthAdjust="spacing" textLength="45" x="1382" y="607.792">to: int</text><text fill="#000000" font-family="sans-serif" font-size="14" lengthAdjust="spacing" textLength="83" x="1382" y="624.0889">__dict__: {}</text><line style="stroke:#181818;stroke-width:0.5;" x1="1377" x2="1545" y1="631.3906" y2="631.3906"/><text fill="#000000" font-family="sans-serif" font-size="14" lengthAdjust="spacing" textLength="158" x="1382" y="648.3857">__init__(u, v, **kwargs)</text></g><!--MD5=[3fee75583bb7a64f68d843a3c9534ab3]
class Node--><g id="elem_Node"><rect codeLine="16" fill="#F1F1F1" height="113.1875" id="Node" rx="2.5" ry="2.5" style="stroke:#181818;stroke-width:0.5;" width="159" x="1448.5" y="337"/><ellipse cx="1505.25" cy="353" fill="#ADD1B2" rx="11" ry="11" style="stroke:#181818;stroke-width:1.0;"/><path d="M1507.5938,348.6719 C1506.6563,348.2344 1506.0625,348.0938 1505.1875,348.0938 C1502.5625,348.0938 1500.5625,350.1719 1500.5625,352.8906 L1500.5625,354.0156 C1500.5625,356.5938 1502.6719,358.4844 1505.5625,358.4844 C1506.7813,358.4844 1507.9375,358.1875 1508.6875,357.6406 C1509.2656,357.2344 1509.5938,356.7813 1509.5938,356.3906 C1509.5938,355.9375 1509.2031,355.5469 1508.7344,355.5469 C1508.5156,355.5469 1508.3125,355.625 1508.125,355.8125 C1507.6719,356.2969 1507.6719,356.2969 1507.4844,356.3906 C1507.0625,356.6563 1506.375,356.7813 1505.6094,356.7813 C1503.5625,356.7813 1502.2656,355.6875 1502.2656,353.9844 L1502.2656,352.8906 C1502.2656,351.1094 1503.5156,349.7969 1505.25,349.7969 C1505.8281,349.7969 1506.4375,349.9531 1506.9063,350.2031 C1507.3906,350.4844 1507.5625,350.7031 1507.6563,351.1094 C1507.7188,351.5156 1507.75,351.6406 1507.8906,351.7656 C1508.0313,351.9063 1508.2656,352.0156 1508.4844,352.0156 C1508.75,352.0156 1509.0156,351.875 1509.1875,351.6563 C1509.2969,351.5 1509.3281,351.3125 1509.3281,350.8906 L1509.3281,349.4688 C1509.3281,349.0313 1509.3125,348.9063 1509.2188,348.75 C1509.0625,348.4844 1508.7813,348.3438 1508.4844,348.3438 C1508.1875,348.3438 1507.9844,348.4375 1507.7656,348.75 L1507.5938,348.6719 Z " fill="#000000"/><text fill="#000000" font-family="sans-serif" font-size="14" lengthAdjust="spacing" textLength="37" x="1525.75" y="357.8467">Node</text><line style="stroke:#181818;stroke-width:0.5;" x1="1449.5" x2="1606.5" y1="369" y2="369"/><text fill="#000000" font-family="sans-serif" font-size="14" lengthAdjust="spacing" textLength="42" x="1454.5" y="385.9951">id: int</text><text fill="#000000" font-family="sans-serif" font-size="14" lengthAdjust="spacing" textLength="124" x="1454.5" y="402.292">edges: List[Edge]</text><text fill="#000000" font-family="sans-serif" font-size="14" lengthAdjust="spacing" textLength="83" x="1454.5" y="418.5889">__dict__: {}</text><line style="stroke:#181818;stroke-width:0.5;" x1="1449.5" x2="1606.5" y1="425.8906" y2="425.8906"/><text fill="#000000" font-family="sans-serif" font-size="14" lengthAdjust="spacing" textLength="147" x="1454.5" y="442.8857">__init__(id, **kwargs)</text></g><!--MD5=[63bbc1e532ecffc895957e6cdb8737c7]
class BiGraphBuilder--><g id="elem_BiGraphBuilder"><rect codeLine="23" fill="#F1F1F1" height="64.2969" id="BiGraphBuilder" rx="2.5" ry="2.5" style="stroke:#181818;stroke-width:0.5;" width="234" x="1509" y="7"/><ellipse cx="1567.25" cy="23" fill="#A9DCDF" rx="11" ry="11" style="stroke:#181818;stroke-width:1.0;"/><path d="M1569.3281,24.8125 L1569.7188,25.7969 L1569.3281,25.7969 C1568.875,25.7969 1568.7656,25.8125 1568.6094,25.9219 C1568.3594,26.0781 1568.2031,26.3594 1568.2031,26.6563 C1568.2031,26.9219 1568.3438,27.1719 1568.5625,27.3281 C1568.7031,27.4531 1568.9063,27.5 1569.3281,27.5 L1571.6875,27.5 C1572.0469,27.5 1572.2656,27.4688 1572.4063,27.375 C1572.6563,27.2344 1572.8125,26.9375 1572.8125,26.6563 C1572.8125,26.375 1572.6719,26.125 1572.4531,25.9688 C1572.2813,25.8281 1572.125,25.7969 1571.6563,25.7969 L1568.2656,17.5938 L1564.5938,17.5938 C1564.1406,17.5938 1564.0156,17.6094 1563.8594,17.7031 C1563.6094,17.875 1563.4531,18.1563 1563.4531,18.4375 C1563.4531,18.7188 1563.5938,18.9688 1563.8125,19.1406 C1563.9844,19.25 1564.1563,19.2813 1564.5938,19.2813 L1565.6719,19.2813 L1563.0313,25.7969 C1562.6094,25.7969 1562.4531,25.8125 1562.2969,25.9219 C1562.0469,26.0781 1561.8906,26.3594 1561.8906,26.6563 C1561.8906,27.2188 1562.2656,27.5 1563.0156,27.5 L1565.2813,27.5 C1565.6406,27.5 1565.8594,27.4688 1565.9844,27.375 C1566.25,27.2344 1566.3906,26.9375 1566.3906,26.6563 C1566.3906,26.375 1566.2656,26.125 1566.0469,25.9531 C1565.875,25.8281 1565.7344,25.7969 1565.2813,25.7969 L1564.8906,25.7969 L1565.2813,24.8125 L1569.3281,24.8125 Z M1568.625,23.1094 L1565.9531,23.1094 L1567.2969,19.8438 L1568.625,23.1094 Z " fill="#000000"/><text fill="#000000" font-family="sans-serif" font-size="14" font-style="italic" lengthAdjust="spacing" textLength="109" x="1587.75" y="27.8467">BiGraphBuilder</text><line style="stroke:#181818;stroke-width:0.5;" x1="1510" x2="1742" y1="39" y2="39"/><line style="stroke:#181818;stroke-width:0.5;" x1="1510" x2="1742" y1="47" y2="47"/><text fill="#000000" font-family="sans-serif" font-size="14" font-style="italic" lengthAdjust="spacing" textLength="222" x="1515" y="63.9951">build(*args, **kwargs): BiGraph</text></g><!--MD5=[7e31a147aaac349bf0e9a14c24554e01]
class TubemapCSVBuilder--><g id="elem_TubemapCSVBuilder"><rect codeLine="27" fill="#F1F1F1" height="145.7813" id="TubemapCSVBuilder" rx="2.5" ry="2.5" style="stroke:#181818;stroke-width:0.5;" width="398" x="1591" y="131"/><ellipse cx="1712.25" cy="147" fill="#ADD1B2" rx="11" ry="11" style="stroke:#181818;stroke-width:1.0;"/><path d="M1714.5938,142.6719 C1713.6563,142.2344 1713.0625,142.0938 1712.1875,142.0938 C1709.5625,142.0938 1707.5625,144.1719 1707.5625,146.8906 L1707.5625,148.0156 C1707.5625,150.5938 1709.6719,152.4844 1712.5625,152.4844 C1713.7813,152.4844 1714.9375,152.1875 1715.6875,151.6406 C1716.2656,151.2344 1716.5938,150.7813 1716.5938,150.3906 C1716.5938,149.9375 1716.2031,149.5469 1715.7344,149.5469 C1715.5156,149.5469 1715.3125,149.625 1715.125,149.8125 C1714.6719,150.2969 1714.6719,150.2969 1714.4844,150.3906 C1714.0625,150.6563 1713.375,150.7813 1712.6094,150.7813 C1710.5625,150.7813 1709.2656,149.6875 1709.2656,147.9844 L1709.2656,146.8906 C1709.2656,145.1094 1710.5156,143.7969 1712.25,143.7969 C1712.8281,143.7969 1713.4375,143.9531 1713.9063,144.2031 C1714.3906,144.4844 1714.5625,144.7031 1714.6563,145.1094 C1714.7188,145.5156 1714.75,145.6406 1714.8906,145.7656 C1715.0313,145.9063 1715.2656,146.0156 1715.4844,146.0156 C1715.75,146.0156 1716.0156,145.875 1716.1875,145.6563 C1716.2969,145.5 1716.3281,145.3125 1716.3281,144.8906 L1716.3281,143.4688 C1716.3281,143.0313 1716.3125,142.9063 1716.2188,142.75 C1716.0625,142.4844 1715.7813,142.3438 1715.4844,142.3438 C1715.1875,142.3438 1714.9844,142.4375 1714.7656,142.75 L1714.5938,142.6719 Z " fill="#000000"/><text fill="#000000" font-family="sans-serif" font-size="14" lengthAdjust="spacing" textLength="147" x="1732.75" y="151.8467">TubemapCSVBuilder</text><line style="stroke:#181818;stroke-width:0.5;" x1="1592" x2="1988" y1="163" y2="163"/><text fill="#000000" font-family="sans-serif" font-size="14" lengthAdjust="spacing" textLength="356" x="1597" y="179.9951">stations: List[Dict[str, Union[int, float, str, None]]]</text><text fill="#000000" font-family="sans-serif" font-size="14" lengthAdjust="spacing" textLength="386" x="1597" y="196.292">connections: List[Dict[str, Union[int, float, str, None]]]</text><text fill="#000000" font-family="sans-serif" font-size="14" lengthAdjust="spacing" textLength="331" x="1597" y="212.5889">lines: List[Dict[str, Union[int, float, str, None]]]</text><text fill="#000000" font-family="sans-serif" font-size="14" lengthAdjust="spacing" textLength="180" x="1597" y="228.8857">id_to_name: Dict[int, str]</text><text fill="#000000" font-family="sans-serif" font-size="14" lengthAdjust="spacing" textLength="180" x="1597" y="245.1826">name_to_id: Dict[str, int]</text><line style="stroke:#181818;stroke-width:0.5;" x1="1592" x2="1988" y1="252.4844" y2="252.4844"/><text fill="#000000" font-family="sans-serif" font-size="14" lengthAdjust="spacing" textLength="373" x="1597" y="269.4795">build(stations_fn, connections_fn, lines_fn): BiGraph</text></g><!--MD5=[fd3ec4cf21c628166c5c5e096ff390a5]
class AStarShortestPathMetric--><g id="elem_AStarShortestPathMetric"><rect codeLine="36" fill="#F1F1F1" height="96.8906" id="AStarShortestPathMetric" rx="2.5" ry="2.5" style="stroke:#181818;stroke-width:0.5;" width="270" x="312" y="772.5"/><ellipse cx="352.2" cy="788.5" fill="#ADD1B2" rx="11" ry="11" style="stroke:#181818;stroke-width:1.0;"/><path d="M354.5438,784.1719 C353.6063,783.7344 353.0125,783.5938 352.1375,783.5938 C349.5125,783.5938 347.5125,785.6719 347.5125,788.3906 L347.5125,789.5156 C347.5125,792.0938 349.6219,793.9844 352.5125,793.9844 C353.7313,793.9844 354.8875,793.6875 355.6375,793.1406 C356.2156,792.7344 356.5438,792.2813 356.5438,791.8906 C356.5438,791.4375 356.1531,791.0469 355.6844,791.0469 C355.4656,791.0469 355.2625,791.125 355.075,791.3125 C354.6219,791.7969 354.6219,791.7969 354.4344,791.8906 C354.0125,792.1563 353.325,792.2813 352.5594,792.2813 C350.5125,792.2813 349.2156,791.1875 349.2156,789.4844 L349.2156,788.3906 C349.2156,786.6094 350.4656,785.2969 352.2,785.2969 C352.7781,785.2969 353.3875,785.4531 353.8563,785.7031 C354.3406,785.9844 354.5125,786.2031 354.6063,786.6094 C354.6688,787.0156 354.7,787.1406 354.8406,787.2656 C354.9813,787.4063 355.2156,787.5156 355.4344,787.5156 C355.7,787.5156 355.9656,787.375 356.1375,787.1563 C356.2469,787 356.2781,786.8125 356.2781,786.3906 L356.2781,784.9688 C356.2781,784.5313 356.2625,784.4063 356.1688,784.25 C356.0125,783.9844 355.7313,783.8438 355.4344,783.8438 C355.1375,783.8438 354.9344,783.9375 354.7156,784.25 L354.5438,784.1719 Z " fill="#000000"/><text fill="#000000" font-family="sans-serif" font-size="14" lengthAdjust="spacing" textLength="182" x="371.8" y="793.3467">AStarShortestPathMetric</text><line style="stroke:#181818;stroke-width:0.5;" x1="313" x2="581" y1="804.5" y2="804.5"/><text fill="#000000" font-family="sans-serif" font-size="14" lengthAdjust="spacing" textLength="248" x="318" y="821.4951">heuristic_func: Callable[[int], float]</text><line style="stroke:#181818;stroke-width:0.5;" x1="313" x2="581" y1="828.7969" y2="828.7969"/><text fill="#000000" font-family="sans-serif" font-size="14" lengthAdjust="spacing" textLength="240" x="318" y="845.792">set_heuristic_func(heuristic_func)</text><text fill="#000000" font-family="sans-serif" font-size="14" lengthAdjust="spacing" textLength="258" x="318" y="862.0889">__call__(fr, to, weight_func): List[int]</text></g><!--MD5=[af02d67182bfb2ec3e39f41c00df3e69]
class DijkstraShortestPathMetric--><g id="elem_DijkstraShortestPathMetric"><rect codeLine="42" fill="#F1F1F1" height="64.2969" id="DijkstraShortestPathMetric" rx="2.5" ry="2.5" style="stroke:#181818;stroke-width:0.5;" width="270" x="7" y="954"/><ellipse cx="40" cy="970" fill="#ADD1B2" rx="11" ry="11" style="stroke:#181818;stroke-width:1.0;"/><path d="M42.3438,965.6719 C41.4063,965.2344 40.8125,965.0938 39.9375,965.0938 C37.3125,965.0938 35.3125,967.1719 35.3125,969.8906 L35.3125,971.0156 C35.3125,973.5938 37.4219,975.4844 40.3125,975.4844 C41.5313,975.4844 42.6875,975.1875 43.4375,974.6406 C44.0156,974.2344 44.3438,973.7813 44.3438,973.3906 C44.3438,972.9375 43.9531,972.5469 43.4844,972.5469 C43.2656,972.5469 43.0625,972.625 42.875,972.8125 C42.4219,973.2969 42.4219,973.2969 42.2344,973.3906 C41.8125,973.6563 41.125,973.7813 40.3594,973.7813 C38.3125,973.7813 37.0156,972.6875 37.0156,970.9844 L37.0156,969.8906 C37.0156,968.1094 38.2656,966.7969 40,966.7969 C40.5781,966.7969 41.1875,966.9531 41.6563,967.2031 C42.1406,967.4844 42.3125,967.7031 42.4063,968.1094 C42.4688,968.5156 42.5,968.6406 42.6406,968.7656 C42.7813,968.9063 43.0156,969.0156 43.2344,969.0156 C43.5,969.0156 43.7656,968.875 43.9375,968.6563 C44.0469,968.5 44.0781,968.3125 44.0781,967.8906 L44.0781,966.4688 C44.0781,966.0313 44.0625,965.9063 43.9688,965.75 C43.8125,965.4844 43.5313,965.3438 43.2344,965.3438 C42.9375,965.3438 42.7344,965.4375 42.5156,965.75 L42.3438,965.6719 Z " fill="#000000"/><text fill="#000000" font-family="sans-serif" font-size="14" lengthAdjust="spacing" textLength="198" x="58" y="974.8467">DijkstraShortestPathMetric</text><line style="stroke:#181818;stroke-width:0.5;" x1="8" x2="276" y1="986" y2="986"/><line style="stroke:#181818;stroke-width:0.5;" x1="8" x2="276" y1="994" y2="994"/><text fill="#000000" font-family="sans-serif" font-size="14" lengthAdjust="spacing" textLength="258" x="13" y="1010.9951">__call__(fr, to, weight_func): List[int]</text></g><!--MD5=[34e4d4a4a33ae9e90c706e872b2c45a4]
class CircularDistancePathMetric--><g id="elem_CircularDistancePathMetric"><rect codeLine="46" fill="#F1F1F1" height="64.2969" id="CircularDistancePathMetric" rx="2.5" ry="2.5" style="stroke:#181818;stroke-width:0.5;" width="270" x="312" y="954"/><ellipse cx="345.9" cy="970" fill="#ADD1B2" rx="11" ry="11" style="stroke:#181818;stroke-width:1.0;"/><path d="M348.2438,965.6719 C347.3063,965.2344 346.7125,965.0938 345.8375,965.0938 C343.2125,965.0938 341.2125,967.1719 341.2125,969.8906 L341.2125,971.0156 C341.2125,973.5938 343.3219,975.4844 346.2125,975.4844 C347.4313,975.4844 348.5875,975.1875 349.3375,974.6406 C349.9156,974.2344 350.2438,973.7813 350.2438,973.3906 C350.2438,972.9375 349.8531,972.5469 349.3844,972.5469 C349.1656,972.5469 348.9625,972.625 348.775,972.8125 C348.3219,973.2969 348.3219,973.2969 348.1344,973.3906 C347.7125,973.6563 347.025,973.7813 346.2594,973.7813 C344.2125,973.7813 342.9156,972.6875 342.9156,970.9844 L342.9156,969.8906 C342.9156,968.1094 344.1656,966.7969 345.9,966.7969 C346.4781,966.7969 347.0875,966.9531 347.5563,967.2031 C348.0406,967.4844 348.2125,967.7031 348.3063,968.1094 C348.3688,968.5156 348.4,968.6406 348.5406,968.7656 C348.6813,968.9063 348.9156,969.0156 349.1344,969.0156 C349.4,969.0156 349.6656,968.875 349.8375,968.6563 C349.9469,968.5 349.9781,968.3125 349.9781,967.8906 L349.9781,966.4688 C349.9781,966.0313 349.9625,965.9063 349.8688,965.75 C349.7125,965.4844 349.4313,965.3438 349.1344,965.3438 C348.8375,965.3438 348.6344,965.4375 348.4156,965.75 L348.2438,965.6719 Z " fill="#000000"/><text fill="#000000" font-family="sans-serif" font-size="14" lengthAdjust="spacing" textLength="196" x="364.1" y="974.8467">CircularDistancePathMetric</text><line style="stroke:#181818;stroke-width:0.5;" x1="313" x2="581" y1="986" y2="986"/><line style="stroke:#181818;stroke-width:0.5;" x1="313" x2="581" y1="994" y2="994"/><text fill="#000000" font-family="sans-serif" font-size="14" lengthAdjust="spacing" textLength="258" x="318" y="1010.9951">__call__(fr, to, weight_func): List[int]</text></g><!--MD5=[f412a9f7dab59f9d83da289d48eb4d5f]
class EuclidianDistancePathMetric--><g id="elem_EuclidianDistancePathMetric"><rect codeLine="50" fill="#F1F1F1" height="64.2969" id="EuclidianDistancePathMetric" rx="2.5" ry="2.5" style="stroke:#181818;stroke-width:0.5;" width="270" x="617" y="954"/><ellipse cx="646.85" cy="970" fill="#ADD1B2" rx="11" ry="11" style="stroke:#181818;stroke-width:1.0;"/><path d="M649.1938,965.6719 C648.2563,965.2344 647.6625,965.0938 646.7875,965.0938 C644.1625,965.0938 642.1625,967.1719 642.1625,969.8906 L642.1625,971.0156 C642.1625,973.5938 644.2719,975.4844 647.1625,975.4844 C648.3813,975.4844 649.5375,975.1875 650.2875,974.6406 C650.8656,974.2344 651.1938,973.7813 651.1938,973.3906 C651.1938,972.9375 650.8031,972.5469 650.3344,972.5469 C650.1156,972.5469 649.9125,972.625 649.725,972.8125 C649.2719,973.2969 649.2719,973.2969 649.0844,973.3906 C648.6625,973.6563 647.975,973.7813 647.2094,973.7813 C645.1625,973.7813 643.8656,972.6875 643.8656,970.9844 L643.8656,969.8906 C643.8656,968.1094 645.1156,966.7969 646.85,966.7969 C647.4281,966.7969 648.0375,966.9531 648.5063,967.2031 C648.9906,967.4844 649.1625,967.7031 649.2563,968.1094 C649.3188,968.5156 649.35,968.6406 649.4906,968.7656 C649.6313,968.9063 649.8656,969.0156 650.0844,969.0156 C650.35,969.0156 650.6156,968.875 650.7875,968.6563 C650.8969,968.5 650.9281,968.3125 650.9281,967.8906 L650.9281,966.4688 C650.9281,966.0313 650.9125,965.9063 650.8188,965.75 C650.6625,965.4844 650.3813,965.3438 650.0844,965.3438 C649.7875,965.3438 649.5844,965.4375 649.3656,965.75 L649.1938,965.6719 Z " fill="#000000"/><text fill="#000000" font-family="sans-serif" font-size="14" lengthAdjust="spacing" textLength="205" x="664.15" y="974.8467">EuclidianDistancePathMetric</text><line style="stroke:#181818;stroke-width:0.5;" x1="618" x2="886" y1="986" y2="986"/><line style="stroke:#181818;stroke-width:0.5;" x1="618" x2="886" y1="994" y2="994"/><text fill="#000000" font-family="sans-serif" font-size="14" lengthAdjust="spacing" textLength="258" x="623" y="1010.9951">__call__(fr, to, weight_func): List[int]</text></g><!--MD5=[ab50e78491d96c19bcd086d508744af1]
class PathMetric--><g id="elem_PathMetric"><rect codeLine="54" fill="#F1F1F1" height="178.375" id="PathMetric" rx="2.5" ry="2.5" style="stroke:#181818;stroke-width:0.5;" width="262" x="510" y="510"/><ellipse cx="599.25" cy="526" fill="#A9DCDF" rx="11" ry="11" style="stroke:#181818;stroke-width:1.0;"/><path d="M601.3281,527.8125 L601.7188,528.7969 L601.3281,528.7969 C600.875,528.7969 600.7656,528.8125 600.6094,528.9219 C600.3594,529.0781 600.2031,529.3594 600.2031,529.6563 C600.2031,529.9219 600.3438,530.1719 600.5625,530.3281 C600.7031,530.4531 600.9063,530.5 601.3281,530.5 L603.6875,530.5 C604.0469,530.5 604.2656,530.4688 604.4063,530.375 C604.6563,530.2344 604.8125,529.9375 604.8125,529.6563 C604.8125,529.375 604.6719,529.125 604.4531,528.9688 C604.2813,528.8281 604.125,528.7969 603.6563,528.7969 L600.2656,520.5938 L596.5938,520.5938 C596.1406,520.5938 596.0156,520.6094 595.8594,520.7031 C595.6094,520.875 595.4531,521.1563 595.4531,521.4375 C595.4531,521.7188 595.5938,521.9688 595.8125,522.1406 C595.9844,522.25 596.1563,522.2813 596.5938,522.2813 L597.6719,522.2813 L595.0313,528.7969 C594.6094,528.7969 594.4531,528.8125 594.2969,528.9219 C594.0469,529.0781 593.8906,529.3594 593.8906,529.6563 C593.8906,530.2188 594.2656,530.5 595.0156,530.5 L597.2813,530.5 C597.6406,530.5 597.8594,530.4688 597.9844,530.375 C598.25,530.2344 598.3906,529.9375 598.3906,529.6563 C598.3906,529.375 598.2656,529.125 598.0469,528.9531 C597.875,528.8281 597.7344,528.7969 597.2813,528.7969 L596.8906,528.7969 L597.2813,527.8125 L601.3281,527.8125 Z M600.625,526.1094 L597.9531,526.1094 L599.2969,522.8438 L600.625,526.1094 Z " fill="#000000"/><text fill="#000000" font-family="sans-serif" font-size="14" font-style="italic" lengthAdjust="spacing" textLength="75" x="619.75" y="530.8467">PathMetric</text><line style="stroke:#181818;stroke-width:0.5;" x1="511" x2="771" y1="542" y2="542"/><text fill="#000000" font-family="sans-serif" font-size="14" lengthAdjust="spacing" textLength="135" x="516" y="558.9951">edges_counter: int</text><text fill="#000000" font-family="sans-serif" font-size="14" lengthAdjust="spacing" textLength="135" x="516" y="575.292">nodes_counter: int</text><text fill="#000000" font-family="sans-serif" font-size="14" lengthAdjust="spacing" textLength="164" x="516" y="591.5889">relaxation_counter: int</text><line style="stroke:#181818;stroke-width:0.5;" x1="511" x2="771" y1="598.8906" y2="598.8906"/><text fill="#000000" font-family="sans-serif" font-size="14" lengthAdjust="spacing" textLength="118" x="516" y="615.8857">reset_counters()</text><text fill="#000000" font-family="sans-serif" font-size="14" lengthAdjust="spacing" textLength="198" x="516" y="632.1826">increment_edges_counter()</text><text fill="#000000" font-family="sans-serif" font-size="14" lengthAdjust="spacing" textLength="198" x="516" y="648.4795">increment_nodes_counter()</text><text fill="#000000" font-family="sans-serif" font-size="14" lengthAdjust="spacing" textLength="227" x="516" y="664.7764">increment_relaxation_counter()</text><text fill="#000000" font-family="sans-serif" font-size="14" font-style="italic" lengthAdjust="spacing" textLength="250" x="516" y="681.0732">__call__(fr, to, weight_func): List[int]</text></g><!--MD5=[5f0b4f7f118e96bc60096f471b0b5eda]
class GraphMetric--><g id="elem_GraphMetric"><rect codeLine="65" fill="#F1F1F1" height="96.8906" id="GraphMetric" rx="2.5" ry="2.5" style="stroke:#181818;stroke-width:0.5;" width="121" x="580.5" y="345"/><ellipse cx="595.95" cy="361" fill="#A9DCDF" rx="11" ry="11" style="stroke:#181818;stroke-width:1.0;"/><path d="M598.0281,362.8125 L598.4188,363.7969 L598.0281,363.7969 C597.575,363.7969 597.4656,363.8125 597.3094,363.9219 C597.0594,364.0781 596.9031,364.3594 596.9031,364.6563 C596.9031,364.9219 597.0438,365.1719 597.2625,365.3281 C597.4031,365.4531 597.6063,365.5 598.0281,365.5 L600.3875,365.5 C600.7469,365.5 600.9656,365.4688 601.1063,365.375 C601.3563,365.2344 601.5125,364.9375 601.5125,364.6563 C601.5125,364.375 601.3719,364.125 601.1531,363.9688 C600.9813,363.8281 600.825,363.7969 600.3563,363.7969 L596.9656,355.5938 L593.2938,355.5938 C592.8406,355.5938 592.7156,355.6094 592.5594,355.7031 C592.3094,355.875 592.1531,356.1563 592.1531,356.4375 C592.1531,356.7188 592.2938,356.9688 592.5125,357.1406 C592.6844,357.25 592.8563,357.2813 593.2938,357.2813 L594.3719,357.2813 L591.7313,363.7969 C591.3094,363.7969 591.1531,363.8125 590.9969,363.9219 C590.7469,364.0781 590.5906,364.3594 590.5906,364.6563 C590.5906,365.2188 590.9656,365.5 591.7156,365.5 L593.9813,365.5 C594.3406,365.5 594.5594,365.4688 594.6844,365.375 C594.95,365.2344 595.0906,364.9375 595.0906,364.6563 C595.0906,364.375 594.9656,364.125 594.7469,363.9531 C594.575,363.8281 594.4344,363.7969 593.9813,363.7969 L593.5906,363.7969 L593.9813,362.8125 L598.0281,362.8125 Z M597.325,361.1094 L594.6531,361.1094 L595.9969,357.8438 L597.325,361.1094 Z " fill="#000000"/><text fill="#000000" font-family="sans-serif" font-size="14" font-style="italic" lengthAdjust="spacing" textLength="88" x="610.05" y="365.8467">GraphMetric</text><line style="stroke:#181818;stroke-width:0.5;" x1="581.5" x2="700.5" y1="377" y2="377"/><text fill="#000000" font-family="sans-serif" font-size="14" lengthAdjust="spacing" textLength="109" x="586.5" y="393.9951">graph: BiGraph</text><line style="stroke:#181818;stroke-width:0.5;" x1="581.5" x2="700.5" y1="401.2969" y2="401.2969"/><text fill="#000000" font-family="sans-serif" font-size="14" lengthAdjust="spacing" textLength="104" x="586.5" y="418.292">__init__(graph)</text><text fill="#000000" font-family="sans-serif" font-size="14" font-style="italic" lengthAdjust="spacing" textLength="63" x="586.5" y="434.5889">__call__()</text></g><!--MD5=[28a29bab075218782426104dbe1251a8]
class TubemapItinerary--><g id="elem_TubemapItinerary"><rect codeLine="71" fill="#F1F1F1" height="145.7813" id="TubemapItinerary" rx="2.5" ry="2.5" style="stroke:#181818;stroke-width:0.5;" width="435" x="617.5" y="748"/><ellipse cx="766.25" cy="764" fill="#ADD1B2" rx="11" ry="11" style="stroke:#181818;stroke-width:1.0;"/><path d="M768.5938,759.6719 C767.6563,759.2344 767.0625,759.0938 766.1875,759.0938 C763.5625,759.0938 761.5625,761.1719 761.5625,763.8906 L761.5625,765.0156 C761.5625,767.5938 763.6719,769.4844 766.5625,769.4844 C767.7813,769.4844 768.9375,769.1875 769.6875,768.6406 C770.2656,768.2344 770.5938,767.7813 770.5938,767.3906 C770.5938,766.9375 770.2031,766.5469 769.7344,766.5469 C769.5156,766.5469 769.3125,766.625 769.125,766.8125 C768.6719,767.2969 768.6719,767.2969 768.4844,767.3906 C768.0625,767.6563 767.375,767.7813 766.6094,767.7813 C764.5625,767.7813 763.2656,766.6875 763.2656,764.9844 L763.2656,763.8906 C763.2656,762.1094 764.5156,760.7969 766.25,760.7969 C766.8281,760.7969 767.4375,760.9531 767.9063,761.2031 C768.3906,761.4844 768.5625,761.7031 768.6563,762.1094 C768.7188,762.5156 768.75,762.6406 768.8906,762.7656 C769.0313,762.9063 769.2656,763.0156 769.4844,763.0156 C769.75,763.0156 770.0156,762.875 770.1875,762.6563 C770.2969,762.5 770.3281,762.3125 770.3281,761.8906 L770.3281,760.4688 C770.3281,760.0313 770.3125,759.9063 770.2188,759.75 C770.0625,759.4844 769.7813,759.3438 769.4844,759.3438 C769.1875,759.3438 768.9844,759.4375 768.7656,759.75 L768.5938,759.6719 Z " fill="#000000"/><text fill="#000000" font-family="sans-serif" font-size="14" lengthAdjust="spacing" textLength="129" x="786.75" y="768.8467">TubemapItinerary</text><line style="stroke:#181818;stroke-width:0.5;" x1="618.5" x2="1051.5" y1="780" y2="780"/><text fill="#000000" font-family="sans-serif" font-size="14" lengthAdjust="spacing" textLength="89" x="623.5" y="796.9951">station1: int</text><text fill="#000000" font-family="sans-serif" font-size="14" lengthAdjust="spacing" textLength="88" x="623.5" y="813.292">station2: int</text><text fill="#000000" font-family="sans-serif" font-size="14" lengthAdjust="spacing" textLength="203" x="623.5" y="829.5889">search_strategy: PathMetric</text><line style="stroke:#181818;stroke-width:0.5;" x1="618.5" x2="1051.5" y1="836.8906" y2="836.8906"/><text fill="#000000" font-family="sans-serif" font-size="14" lengthAdjust="spacing" textLength="98" x="623.5" y="853.8857">__init__(fr, to)</text><text fill="#000000" font-family="sans-serif" font-size="14" lengthAdjust="spacing" textLength="216" x="623.5" y="870.1826">set_search_strategy(strategy)</text><text fill="#000000" font-family="sans-serif" font-size="14" lengthAdjust="spacing" textLength="423" x="623.5" y="886.4795">shortest_path(time_weight, conn_weight, transfer_weight)</text></g><!--MD5=[84b34589645bee0efc47ecaea894c4f7]
class DegreeMetric--><g id="elem_DegreeMetric"><rect codeLine="80" fill="#F1F1F1" height="96.8906" id="DegreeMetric" rx="2.5" ry="2.5" style="stroke:#181818;stroke-width:0.5;" width="132" x="9" y="155.5"/><ellipse cx="24.45" cy="171.5" fill="#ADD1B2" rx="11" ry="11" style="stroke:#181818;stroke-width:1.0;"/><path d="M26.7938,167.1719 C25.8563,166.7344 25.2625,166.5938 24.3875,166.5938 C21.7625,166.5938 19.7625,168.6719 19.7625,171.3906 L19.7625,172.5156 C19.7625,175.0938 21.8719,176.9844 24.7625,176.9844 C25.9813,176.9844 27.1375,176.6875 27.8875,176.1406 C28.4656,175.7344 28.7938,175.2813 28.7938,174.8906 C28.7938,174.4375 28.4031,174.0469 27.9344,174.0469 C27.7156,174.0469 27.5125,174.125 27.325,174.3125 C26.8719,174.7969 26.8719,174.7969 26.6844,174.8906 C26.2625,175.1563 25.575,175.2813 24.8094,175.2813 C22.7625,175.2813 21.4656,174.1875 21.4656,172.4844 L21.4656,171.3906 C21.4656,169.6094 22.7156,168.2969 24.45,168.2969 C25.0281,168.2969 25.6375,168.4531 26.1063,168.7031 C26.5906,168.9844 26.7625,169.2031 26.8563,169.6094 C26.9188,170.0156 26.95,170.1406 27.0906,170.2656 C27.2313,170.4063 27.4656,170.5156 27.6844,170.5156 C27.95,170.5156 28.2156,170.375 28.3875,170.1563 C28.4969,170 28.5281,169.8125 28.5281,169.3906 L28.5281,167.9688 C28.5281,167.5313 28.5125,167.4063 28.4188,167.25 C28.2625,166.9844 27.9813,166.8438 27.6844,166.8438 C27.3875,166.8438 27.1844,166.9375 26.9656,167.25 L26.7938,167.1719 Z " fill="#000000"/><text fill="#000000" font-family="sans-serif" font-size="14" lengthAdjust="spacing" textLength="99" x="38.55" y="176.3467">DegreeMetric</text><line style="stroke:#181818;stroke-width:0.5;" x1="10" x2="140" y1="187.5" y2="187.5"/><text fill="#000000" font-family="sans-serif" font-size="14" lengthAdjust="spacing" textLength="37" x="15" y="204.4951">u: int</text><line style="stroke:#181818;stroke-width:0.5;" x1="10" x2="140" y1="211.7969" y2="211.7969"/><text fill="#000000" font-family="sans-serif" font-size="14" lengthAdjust="spacing" textLength="120" x="15" y="228.792">__init__(graph, u)</text><text fill="#000000" font-family="sans-serif" font-size="14" lengthAdjust="spacing" textLength="91" x="15" y="245.0889">__call__(): int</text></g><!--MD5=[0d3386d675b2fdb6dbaab6a939785460]
class NumberOfEdgesMetric--><g id="elem_NumberOfEdgesMetric"><rect codeLine="86" fill="#F1F1F1" height="64.2969" id="NumberOfEdgesMetric" rx="2.5" ry="2.5" style="stroke:#181818;stroke-width:0.5;" width="195" x="176.5" y="172"/><ellipse cx="191.5" cy="188" fill="#ADD1B2" rx="11" ry="11" style="stroke:#181818;stroke-width:1.0;"/><path d="M193.8438,183.6719 C192.9063,183.2344 192.3125,183.0938 191.4375,183.0938 C188.8125,183.0938 186.8125,185.1719 186.8125,187.8906 L186.8125,189.0156 C186.8125,191.5938 188.9219,193.4844 191.8125,193.4844 C193.0313,193.4844 194.1875,193.1875 194.9375,192.6406 C195.5156,192.2344 195.8438,191.7813 195.8438,191.3906 C195.8438,190.9375 195.4531,190.5469 194.9844,190.5469 C194.7656,190.5469 194.5625,190.625 194.375,190.8125 C193.9219,191.2969 193.9219,191.2969 193.7344,191.3906 C193.3125,191.6563 192.625,191.7813 191.8594,191.7813 C189.8125,191.7813 188.5156,190.6875 188.5156,188.9844 L188.5156,187.8906 C188.5156,186.1094 189.7656,184.7969 191.5,184.7969 C192.0781,184.7969 192.6875,184.9531 193.1563,185.2031 C193.6406,185.4844 193.8125,185.7031 193.9063,186.1094 C193.9688,186.5156 194,186.6406 194.1406,186.7656 C194.2813,186.9063 194.5156,187.0156 194.7344,187.0156 C195,187.0156 195.2656,186.875 195.4375,186.6563 C195.5469,186.5 195.5781,186.3125 195.5781,185.8906 L195.5781,184.4688 C195.5781,184.0313 195.5625,183.9063 195.4688,183.75 C195.3125,183.4844 195.0313,183.3438 194.7344,183.3438 C194.4375,183.3438 194.2344,183.4375 194.0156,183.75 L193.8438,183.6719 Z " fill="#000000"/><text fill="#000000" font-family="sans-serif" font-size="14" lengthAdjust="spacing" textLength="163" x="205.5" y="192.8467">NumberOfEdgesMetric</text><line style="stroke:#181818;stroke-width:0.5;" x1="177.5" x2="370.5" y1="204" y2="204"/><line style="stroke:#181818;stroke-width:0.5;" x1="177.5" x2="370.5" y1="212" y2="212"/><text fill="#000000" font-family="sans-serif" font-size="14" lengthAdjust="spacing" textLength="91" x="182.5" y="228.9951">__call__(): int</text></g><!--MD5=[c99bf51f4a4fcdec7096344ffcfafb8f]
class NumberOfNodesMetric--><g id="elem_NumberOfNodesMetric"><rect codeLine="90" fill="#F1F1F1" height="64.2969" id="NumberOfNodesMetric" rx="2.5" ry="2.5" style="stroke:#181818;stroke-width:0.5;" width="196" x="407" y="172"/><ellipse cx="422" cy="188" fill="#ADD1B2" rx="11" ry="11" style="stroke:#181818;stroke-width:1.0;"/><path d="M424.3438,183.6719 C423.4063,183.2344 422.8125,183.0938 421.9375,183.0938 C419.3125,183.0938 417.3125,185.1719 417.3125,187.8906 L417.3125,189.0156 C417.3125,191.5938 419.4219,193.4844 422.3125,193.4844 C423.5313,193.4844 424.6875,193.1875 425.4375,192.6406 C426.0156,192.2344 426.3438,191.7813 426.3438,191.3906 C426.3438,190.9375 425.9531,190.5469 425.4844,190.5469 C425.2656,190.5469 425.0625,190.625 424.875,190.8125 C424.4219,191.2969 424.4219,191.2969 424.2344,191.3906 C423.8125,191.6563 423.125,191.7813 422.3594,191.7813 C420.3125,191.7813 419.0156,190.6875 419.0156,188.9844 L419.0156,187.8906 C419.0156,186.1094 420.2656,184.7969 422,184.7969 C422.5781,184.7969 423.1875,184.9531 423.6563,185.2031 C424.1406,185.4844 424.3125,185.7031 424.4063,186.1094 C424.4688,186.5156 424.5,186.6406 424.6406,186.7656 C424.7813,186.9063 425.0156,187.0156 425.2344,187.0156 C425.5,187.0156 425.7656,186.875 425.9375,186.6563 C426.0469,186.5 426.0781,186.3125 426.0781,185.8906 L426.0781,184.4688 C426.0781,184.0313 426.0625,183.9063 425.9688,183.75 C425.8125,183.4844 425.5313,183.3438 425.2344,183.3438 C424.9375,183.3438 424.7344,183.4375 424.5156,183.75 L424.3438,183.6719 Z " fill="#000000"/><text fill="#000000" font-family="sans-serif" font-size="14" lengthAdjust="spacing" textLength="164" x="436" y="192.8467">NumberOfNodesMetric</text><line style="stroke:#181818;stroke-width:0.5;" x1="408" x2="602" y1="204" y2="204"/><line style="stroke:#181818;stroke-width:0.5;" x1="408" x2="602" y1="212" y2="212"/><text fill="#000000" font-family="sans-serif" font-size="14" lengthAdjust="spacing" textLength="91" x="413" y="228.9951">__call__(): int</text></g><!--MD5=[4a118898d7da350bfaf3fac904d53aa6]
class TubemapPatrolMetric--><g id="elem_TubemapPatrolMetric"><rect codeLine="94" fill="#F1F1F1" height="113.1875" id="TubemapPatrolMetric" rx="2.5" ry="2.5" style="stroke:#181818;stroke-width:0.5;" width="277" x="638.5" y="147.5"/><ellipse cx="694.25" cy="163.5" fill="#ADD1B2" rx="11" ry="11" style="stroke:#181818;stroke-width:1.0;"/><path d="M696.5938,159.1719 C695.6563,158.7344 695.0625,158.5938 694.1875,158.5938 C691.5625,158.5938 689.5625,160.6719 689.5625,163.3906 L689.5625,164.5156 C689.5625,167.0938 691.6719,168.9844 694.5625,168.9844 C695.7813,168.9844 696.9375,168.6875 697.6875,168.1406 C698.2656,167.7344 698.5938,167.2813 698.5938,166.8906 C698.5938,166.4375 698.2031,166.0469 697.7344,166.0469 C697.5156,166.0469 697.3125,166.125 697.125,166.3125 C696.6719,166.7969 696.6719,166.7969 696.4844,166.8906 C696.0625,167.1563 695.375,167.2813 694.6094,167.2813 C692.5625,167.2813 691.2656,166.1875 691.2656,164.4844 L691.2656,163.3906 C691.2656,161.6094 692.5156,160.2969 694.25,160.2969 C694.8281,160.2969 695.4375,160.4531 695.9063,160.7031 C696.3906,160.9844 696.5625,161.2031 696.6563,161.6094 C696.7188,162.0156 696.75,162.1406 696.8906,162.2656 C697.0313,162.4063 697.2656,162.5156 697.4844,162.5156 C697.75,162.5156 698.0156,162.375 698.1875,162.1563 C698.2969,162 698.3281,161.8125 698.3281,161.3906 L698.3281,159.9688 C698.3281,159.5313 698.3125,159.4063 698.2188,159.25 C698.0625,158.9844 697.7813,158.8438 697.4844,158.8438 C697.1875,158.8438 696.9844,158.9375 696.7656,159.25 L696.5938,159.1719 Z " fill="#000000"/><text fill="#000000" font-family="sans-serif" font-size="14" lengthAdjust="spacing" textLength="157" x="714.75" y="168.3467">TubemapPatrolMetric</text><line style="stroke:#181818;stroke-width:0.5;" x1="639.5" x2="914.5" y1="179.5" y2="179.5"/><text fill="#000000" font-family="sans-serif" font-size="14" lengthAdjust="spacing" textLength="123" x="644.5" y="196.4951">stations: List[int]</text><line style="stroke:#181818;stroke-width:0.5;" x1="639.5" x2="914.5" y1="203.7969" y2="203.7969"/><text fill="#000000" font-family="sans-serif" font-size="14" lengthAdjust="spacing" textLength="231" x="644.5" y="220.792">weight_func: (Edge, Edge) -&gt; int</text><text fill="#000000" font-family="sans-serif" font-size="14" lengthAdjust="spacing" textLength="265" x="644.5" y="237.0889">__init__(graph, stations, weight_func)</text><text fill="#000000" font-family="sans-serif" font-size="14" lengthAdjust="spacing" textLength="217" x="644.5" y="253.3857">__call__(): (int), List[List[Edge]]</text></g><!--MD5=[b14bfc22fd643ed0819a7f237591004c]
class TubemapIslandMetric--><g id="elem_TubemapIslandMetric"><rect codeLine="101" fill="#F1F1F1" height="64.2969" id="TubemapIslandMetric" rx="2.5" ry="2.5" style="stroke:#181818;stroke-width:0.5;" width="383" x="950.5" y="172"/><ellipse cx="1060.25" cy="188" fill="#ADD1B2" rx="11" ry="11" style="stroke:#181818;stroke-width:1.0;"/><path d="M1062.5938,183.6719 C1061.6563,183.2344 1061.0625,183.0938 1060.1875,183.0938 C1057.5625,183.0938 1055.5625,185.1719 1055.5625,187.8906 L1055.5625,189.0156 C1055.5625,191.5938 1057.6719,193.4844 1060.5625,193.4844 C1061.7813,193.4844 1062.9375,193.1875 1063.6875,192.6406 C1064.2656,192.2344 1064.5938,191.7813 1064.5938,191.3906 C1064.5938,190.9375 1064.2031,190.5469 1063.7344,190.5469 C1063.5156,190.5469 1063.3125,190.625 1063.125,190.8125 C1062.6719,191.2969 1062.6719,191.2969 1062.4844,191.3906 C1062.0625,191.6563 1061.375,191.7813 1060.6094,191.7813 C1058.5625,191.7813 1057.2656,190.6875 1057.2656,188.9844 L1057.2656,187.8906 C1057.2656,186.1094 1058.5156,184.7969 1060.25,184.7969 C1060.8281,184.7969 1061.4375,184.9531 1061.9063,185.2031 C1062.3906,185.4844 1062.5625,185.7031 1062.6563,186.1094 C1062.7188,186.5156 1062.75,186.6406 1062.8906,186.7656 C1063.0313,186.9063 1063.2656,187.0156 1063.4844,187.0156 C1063.75,187.0156 1064.0156,186.875 1064.1875,186.6563 C1064.2969,186.5 1064.3281,186.3125 1064.3281,185.8906 L1064.3281,184.4688 C1064.3281,184.0313 1064.3125,183.9063 1064.2188,183.75 C1064.0625,183.4844 1063.7813,183.3438 1063.4844,183.3438 C1063.1875,183.3438 1062.9844,183.4375 1062.7656,183.75 L1062.5938,183.6719 Z " fill="#000000"/><text fill="#000000" font-family="sans-serif" font-size="14" lengthAdjust="spacing" textLength="155" x="1080.75" y="192.8467">TubemapIslandMetric</text><line style="stroke:#181818;stroke-width:0.5;" x1="951.5" x2="1332.5" y1="204" y2="204"/><line style="stroke:#181818;stroke-width:0.5;" x1="951.5" x2="1332.5" y1="212" y2="212"/><text fill="#000000" font-family="sans-serif" font-size="14" lengthAdjust="spacing" textLength="371" x="956.5" y="228.9951">__call__(): Dict[int, List[int]], Dict[int, int], List[Edge]</text></g><!--MD5=[ddafb8ed15dc57ca0d3e9f88bf227c11]
reverse link BiGraph to Edge--><g id="link_BiGraph_Edge"><path codeLine="105" d="M1440.89,281.493 C1436.78,299.554 1433.1,318.842 1431,337 C1425.22,386.889 1425.99,400.029 1431,450 C1434.09,480.782 1440.7,514.631 1446.94,542.18 " fill="none" id="BiGraph-backto-Edge" style="stroke:#181818;stroke-width:1.0;"/><polygon fill="none" points="1443.94,268.593,1438.6677,273.5127,1441.1812,280.2716,1446.4534,275.3519,1443.94,268.593" style="stroke:#181818;stroke-width:1.0;"/></g><!--MD5=[6eb0eac27f1d3764baf76183343a1c82]
reverse link BiGraph to Node--><g id="link_BiGraph_Node"><path codeLine="106" d="M1488.79,281.119 C1495.35,299.736 1502.24,319.315 1508.38,336.775 " fill="none" id="BiGraph-backto-Node" style="stroke:#181818;stroke-width:1.0;"/><polygon fill="none" points="1484.44,268.741,1482.6579,275.7284,1488.4224,280.0609,1490.2045,273.0735,1484.44,268.741" style="stroke:#181818;stroke-width:1.0;"/></g><!--MD5=[0901dc0160ef869976477107d0255705]
reverse link Node to Edge--><g id="link_Node_Edge"><path codeLine="107" d="M1505.59,462.555 C1497.04,488.523 1487.41,517.792 1479.29,542.46 " fill="none" id="Node-backto-Edge" style="stroke:#181818;stroke-width:1.0;"/><polygon fill="none" points="1509.69,450.107,1504.0152,454.5563,1505.9396,461.5059,1511.6144,457.0566,1509.69,450.107" style="stroke:#181818;stroke-width:1.0;"/></g><!--MD5=[54b422f9974fd3007e88872733fa56fb]
link BiGraphBuilder to BiGraph--><g id="link_BiGraphBuilder_BiGraph"><path codeLine="108" d="M1594.77,71.043 C1576.33,89.368 1552.25,113.303 1529.66,135.75 " fill="none" id="BiGraphBuilder-to-BiGraph" style="stroke:#181818;stroke-width:1.0;"/><polygon fill="#181818" points="1526.05,139.339,1535.2509,135.8258,1529.5941,135.812,1529.6078,130.1552,1526.05,139.339" style="stroke:#181818;stroke-width:1.0;"/></g><!--MD5=[3e3e51b9c7c64f881d712787af22e29a]
reverse link BiGraphBuilder to TubemapCSVBuilder--><g id="link_BiGraphBuilder_TubemapCSVBuilder"><path codeLine="109" d="M1671.78,85.502 C1685.94,99.573 1701.9,115.435 1717.4,130.846 " fill="none" id="BiGraphBuilder-backto-TubemapCSVBuilder" style="stroke:#181818;stroke-width:1.0;"/><polygon fill="none" points="1666.48,90.106,1657.23,71.043,1676.35,80.177,1666.48,90.106" style="stroke:#181818;stroke-width:1.0;"/></g><!--MD5=[b1bba6a56b0fb6112661a94e59403675]
reverse link PathMetric to AStarShortestPathMetric--><g id="link_PathMetric_AStarShortestPathMetric"><path codeLine="110" d="M549.74,703.491 C528.546,727.525 506.986,751.975 489.125,772.229 " fill="none" id="PathMetric-backto-AStarShortestPathMetric" style="stroke:#181818;stroke-width:1.0;"/><polygon fill="none" points="544.732,698.586,563.211,688.215,555.233,707.845,544.732,698.586" style="stroke:#181818;stroke-width:1.0;"/></g><!--MD5=[b51f97adba7230f78c038a5e2f2eaecb]
reverse link AStarShortestPathMetric to DijkstraShortestPathMetric--><g id="link_AStarShortestPathMetric_DijkstraShortestPathMetric"><path codeLine="111" d="M340.294,879.026 C293.268,904.158 239.839,932.7125 200.298,953.8438 " fill="none" id="AStarShortestPathMetric-backto-DijkstraShortestPathMetric" style="stroke:#181818;stroke-width:1.0;"/><polygon fill="none" points="337.023,872.838,357.961,869.585,343.622,885.185,337.023,872.838" style="stroke:#181818;stroke-width:1.0;"/></g><!--MD5=[e2e11fd944d9364ffa04e4af4042d755]
reverse link AStarShortestPathMetric to CircularDistancePathMetric--><g id="link_AStarShortestPathMetric_CircularDistancePathMetric"><path codeLine="112" d="M447,889.756 C447,911.909 447,935.457 447,953.5961 " fill="none" id="AStarShortestPathMetric-backto-CircularDistancePathMetric" style="stroke:#181818;stroke-width:1.0;"/><polygon fill="none" points="440,889.585,447,869.585,454,889.584,440,889.585" style="stroke:#181818;stroke-width:1.0;"/></g><!--MD5=[23d476a393f28014b90f7a14c20c92b2]
reverse link AStarShortestPathMetric to EuclidianDistancePathMetric--><g id="link_AStarShortestPathMetric_EuclidianDistancePathMetric"><path codeLine="113" d="M553.706,879.026 C600.732,904.158 654.161,932.7125 693.702,953.8438 " fill="none" id="AStarShortestPathMetric-backto-EuclidianDistancePathMetric" style="stroke:#181818;stroke-width:1.0;"/><polygon fill="none" points="550.378,885.185,536.039,869.585,556.977,872.838,550.378,885.185" style="stroke:#181818;stroke-width:1.0;"/></g><!--MD5=[1ebdbc201648e865f5d6a794c35f0788]
reverse link GraphMetric to PathMetric--><g id="link_GraphMetric_PathMetric"><path codeLine="114" d="M641,462.437 C641,477.642 641,493.984 641,509.875 " fill="none" id="GraphMetric-backto-PathMetric" style="stroke:#181818;stroke-width:1.0;"/><polygon fill="none" points="634,462.212,641,442.212,648,462.212,634,462.212" style="stroke:#181818;stroke-width:1.0;"/></g><!--MD5=[26dac5f435365a078dec2d07b120332e]
link BiGraph to GraphMetric--><g id="link_BiGraph_GraphMetric"><path codeLine="115" d="M1369.93,268.622 C1363.66,271.726 1357.32,274.56 1351,277 C1129.95,362.318 846.556,384.614 714.656,390.44 " fill="none" id="BiGraph-to-GraphMetric" style="stroke:#181818;stroke-width:1.0;"/><polygon fill="none" points="701.611,390.983,707.7724,394.7296,713.6006,390.4832,707.4392,386.7366,701.611,390.983" style="stroke:#181818;stroke-width:1.0;"/></g><!--MD5=[9808d15f7a1a15f9b670561bfe5457ae]
reverse link PathMetric to TubemapItinerary--><g id="link_PathMetric_TubemapItinerary"><path codeLine="116" d="M727.462,698.049 C742.274,714.847 757.418,732.02 771.49,747.978 " fill="none" id="PathMetric-backto-TubemapItinerary" style="stroke:#181818;stroke-width:1.0;"/><polygon fill="none" points="718.789,688.215,719.7576,695.3608,726.7262,697.2151,725.7576,690.0693,718.789,688.215" style="stroke:#181818;stroke-width:1.0;"/></g><!--MD5=[bcb1bb6fdf7105f102fe9814a5ad04da]
link DegreeMetric to GraphMetric--><g id="link_DegreeMetric_GraphMetric"><path codeLine="117" d="M122.805,252.633 C133.98,261.797 146.34,270.539 159,277 C290.124,343.922 461.255,372.981 560.361,384.896 " fill="none" id="DegreeMetric-to-GraphMetric" style="stroke:#181818;stroke-width:1.0;"/><polygon fill="none" points="561.3,377.957,580.375,387.185,559.709,391.867,561.3,377.957" style="stroke:#181818;stroke-width:1.0;"/></g><!--MD5=[c0b76adb54edc1c15cfd0ce8ba1a8f2a]
link NumberOfEdgesMetric to GraphMetric--><g id="link_NumberOfEdgesMetric_GraphMetric"><path codeLine="118" d="M320.461,236.007 C341.087,249.268 365.883,264.533 389,277 C445.529,307.485 511.602,337.573 561.907,359.395 " fill="none" id="NumberOfEdgesMetric-to-GraphMetric" style="stroke:#181818;stroke-width:1.0;"/><polygon fill="none" points="564.758,353.001,580.362,367.337,559.224,365.86,564.758,353.001" style="stroke:#181818;stroke-width:1.0;"/></g><!--MD5=[36269d59ce455a41ba91fdbead57db9e]
link NumberOfNodesMetric to GraphMetric--><g id="link_NumberOfNodesMetric_GraphMetric"><path codeLine="119" d="M527.763,236.383 C545.967,261.48 572.086,297.49 594.653,328.602 " fill="none" id="NumberOfNodesMetric-to-GraphMetric" style="stroke:#181818;stroke-width:1.0;"/><polygon fill="none" points="600.333,324.511,606.409,344.811,589,332.731,600.333,324.511" style="stroke:#181818;stroke-width:1.0;"/></g><!--MD5=[7e758dfd77dd490c96d4272fbf4d920e]
link TubemapIslandMetric to GraphMetric--><g id="link_TubemapIslandMetric_GraphMetric"><path codeLine="120" d="M1058.99,236.067 C965.007,271.24 812.976,328.138 720.479,362.755 " fill="none" id="TubemapIslandMetric-to-GraphMetric" style="stroke:#181818;stroke-width:1.0;"/><polygon fill="none" points="722.871,369.334,701.687,369.788,717.964,356.222,722.871,369.334" style="stroke:#181818;stroke-width:1.0;"/></g><!--MD5=[c5c369fa32de85bedb0cb3c520e7b6ad]
link TubemapPatrolMetric to GraphMetric--><g id="link_TubemapPatrolMetric_GraphMetric"><path codeLine="121" d="M736.564,260.749 C721.09,282.082 703.324,306.576 687.34,328.612 " fill="none" id="TubemapPatrolMetric-to-GraphMetric" style="stroke:#181818;stroke-width:1.0;"/><polygon fill="none" points="692.942,332.811,675.533,344.89,681.609,324.591,692.942,332.811" style="stroke:#181818;stroke-width:1.0;"/></g><!--MD5=[108a867c0bd0a3d2ee802f5745f4ba0f]
@startuml
class BiGraph {
  adj: Dict[int, Node]
  edges: int
  __init__()
  add_node(u, **kwargs)
  add_edge(u, v, **kwargs)
}

class Edge {
  fr: int
  to: int
  __dict__: {}
  __init__(u, v, **kwargs)
}

class Node {
  id: int
  edges: List[Edge]
  __dict__: {}
  __init__(id, **kwargs)
}

abstract class BiGraphBuilder {
  {abstract} build(*args, **kwargs): BiGraph
}

class TubemapCSVBuilder {
  stations: List[Dict[str, Union[int, float, str, None]]]
  connections: List[Dict[str, Union[int, float, str, None]]]
  lines: List[Dict[str, Union[int, float, str, None]]]
  id_to_name: Dict[int, str]
  name_to_id: Dict[str, int]
  build(stations_fn, connections_fn, lines_fn): BiGraph
}

class AStarShortestPathMetric {
  heuristic_func: Callable[[int], float]
  set_heuristic_func(heuristic_func)
  __call__(fr, to, weight_func): List[int]
}

class DijkstraShortestPathMetric {
  __call__(fr, to, weight_func): List[int]
}

class CircularDistancePathMetric {
  __call__(fr, to, weight_func): List[int]
}

class EuclidianDistancePathMetric {
  __call__(fr, to, weight_func): List[int]
}

abstract class PathMetric {
  edges_counter: int
  nodes_counter: int
  relaxation_counter: int
  reset_counters()
  increment_edges_counter()
  increment_nodes_counter()
  increment_relaxation_counter()
  {abstract} __call__(fr, to, weight_func): List[int]
}

abstract class GraphMetric {
  graph: BiGraph
  __init__(graph)
  {abstract} __call__()
}

class TubemapItinerary {
  station1: int
  station2: int
  search_strategy: PathMetric
  __init__(fr, to)
  set_search_strategy(strategy)
  shortest_path(time_weight, conn_weight, transfer_weight)
}

class DegreeMetric {
  u: int
  __init__(graph, u)
  __call__(): int
}

class NumberOfEdgesMetric {
  __call__(): int  
}

class NumberOfNodesMetric {
  __call__(): int
}

class TubemapPatrolMetric {
  stations: List[int]
  weight_func: (Edge, Edge) -> int
  __init__(graph, stations, weight_func)
  __call__(): (int), List[List[Edge]]
}

class TubemapIslandMetric {
  __call__(): Dict[int, List[int]], Dict[int, int], List[Edge]
}

BiGraph o- - Edge
BiGraph o- - Node
Node o- - Edge
BiGraphBuilder - -> BiGraph
BiGraphBuilder <|- - TubemapCSVBuilder
PathMetric <|- - AStarShortestPathMetric
AStarShortestPathMetric <|- - DijkstraShortestPathMetric
AStarShortestPathMetric <|- - CircularDistancePathMetric 
AStarShortestPathMetric <|- - EuclidianDistancePathMetric
GraphMetric <|- - PathMetric
BiGraph - -o GraphMetric
PathMetric o- - TubemapItinerary
DegreeMetric - -|> GraphMetric
NumberOfEdgesMetric - -|> GraphMetric
NumberOfNodesMetric - -|> GraphMetric
TubemapIslandMetric - -|> GraphMetric
TubemapPatrolMetric - -|> GraphMetric
@enduml

PlantUML version 1.2022.9(Tue Sep 27 16:10:06 UTC 2022)
(GPL source distribution)
Java Runtime: Java(TM) SE Runtime Environment
JVM: Java HotSpot(TM) 64-Bit Server VM
Default Encoding: UTF-8
Language: en
Country: US
--></g></svg>